<svg width="54" height="54" viewBox="0 0 54 54" fill="none" xmlns="http://www.w3.org/2000/svg">
<circle cx="27" cy="27" r="27" fill="url(#paint0_linear_455_67)"/>
<path d="M32.5156 16.7102C27.3617 13.9433 21.0681 15.4538 17.6668 19.9989V17.0833C17.6668 16.7612 17.4056 16.5 17.0835 16.5C16.7614 16.5 16.5002 16.7612 16.5002 17.0833V21.75C16.5004 22.0719 16.7615 22.3335 17.0835 22.3333H21.7502C22.0723 22.3333 22.3335 22.0721 22.3335 21.75C22.3335 21.4278 22.0723 21.1667 21.7502 21.1667H18.2754C20.1952 18.2888 23.4192 16.513 26.9225 16.5C32.7001 16.4786 37.401 21.1448 37.4225 26.9223C37.4439 32.6998 32.7777 37.4009 27.0002 37.4223C21.2227 37.4437 16.5216 32.7775 16.5002 27C16.5002 26.8131 16.4996 26.6365 16.5104 26.4497C16.5287 26.1284 16.2831 25.8527 15.9618 25.8345C15.9551 25.834 15.9484 25.8336 15.9418 25.8333C15.6253 25.8208 15.3586 26.0672 15.346 26.3836C15.3341 26.5933 15.3335 26.7904 15.3335 27C15.3408 33.4402 20.5599 38.6593 27.0002 38.6667C31.2974 38.6645 35.2459 36.3015 37.2785 32.5154C40.3277 26.8356 38.1953 19.7595 32.5156 16.7102Z" fill="white"/>
<defs>
<linearGradient id="paint0_linear_455_67" x1="27" y1="0" x2="27" y2="54" gradientUnits="userSpaceOnUse">
<stop stop-color="#471BFF"/>
<stop offset="1" stop-color="#7C5CFF"/>
</linearGradient>
</defs>
</svg>
