<svg width="51" height="62" viewBox="0 0 51 62" fill="none" xmlns="http://www.w3.org/2000/svg">
<path d="M7.63228 37.0444C7.63228 36.298 7.40847 35.5684 6.98915 34.9477C6.56982 34.3271 5.97382 33.8434 5.27652 33.5578C4.57921 33.2721 3.81191 33.1974 3.07165 33.343C2.33139 33.4886 1.65142 33.8481 1.11772 34.3759C0.584027 34.9036 0.220574 35.5761 0.0733279 36.3082C-0.0739188 37.0402 0.00165324 37.799 0.290488 38.4886C0.579322 39.1782 1.06845 39.7676 1.69601 40.1823C2.32357 40.597 3.06138 40.8183 3.81614 40.8183C4.82771 40.8166 5.79734 40.4184 6.51262 39.711C7.22791 39.0037 7.63053 38.0448 7.63228 37.0444ZM2.32287 37.0444C2.32287 36.7523 2.41045 36.4668 2.57453 36.224C2.73861 35.9811 2.97183 35.7918 3.24469 35.6801C3.51755 35.5683 3.8178 35.5391 4.10746 35.596C4.39713 35.653 4.66321 35.7937 4.87204 36.0002C5.08088 36.2067 5.2231 36.4698 5.28072 36.7563C5.33834 37.0428 5.30877 37.3397 5.19575 37.6095C5.08272 37.8794 4.89133 38.11 4.64576 38.2723C4.40019 38.4345 4.11148 38.5212 3.81614 38.5212C3.42064 38.5194 3.04183 38.3633 2.76217 38.0867C2.4825 37.8101 2.32462 37.4355 2.32287 37.0444Z" fill="#471BFF"/>
<path d="M47.6253 28.4003C47.6266 27.5497 47.3728 26.7179 46.8959 26.0101C46.4191 25.3023 45.7406 24.7502 44.9464 24.4239C44.1522 24.0975 43.2779 24.0114 42.4342 24.1765C41.5905 24.3417 40.8153 24.7506 40.2067 25.3515C39.5981 25.9525 39.1834 26.7185 39.0152 27.5526C38.8469 28.3867 38.9326 29.2514 39.2614 30.0373C39.5902 30.8232 40.1474 31.495 40.8624 31.9677C41.5774 32.4404 42.4182 32.6926 43.2782 32.6927C44.4295 32.6909 45.5331 32.2383 46.3478 31.4339C47.1625 30.6295 47.6218 29.5387 47.6253 28.4003ZM41.2607 28.4003C41.2607 28.0108 41.3774 27.6301 41.5962 27.3063C41.815 26.9825 42.1259 26.7302 42.4897 26.5811C42.8536 26.4321 43.2539 26.3931 43.6401 26.4691C44.0263 26.5451 44.3811 26.7326 44.6596 27.008C44.938 27.2833 45.1276 27.6342 45.2045 28.0161C45.2813 28.3981 45.2419 28.794 45.0912 29.1538C44.9405 29.5135 44.6853 29.8211 44.3578 30.0374C44.0304 30.2538 43.6455 30.3692 43.2517 30.3692C42.7236 30.3692 42.2172 30.1618 41.8438 29.7925C41.4704 29.4233 41.2607 28.9225 41.2607 28.4003Z" fill="#471BFF"/>
<path d="M11.1893 47.4735C10.5494 47.116 9.83098 46.918 9.09628 46.8966C8.36159 46.8752 7.63267 47.0311 6.97254 47.3507C6.31241 47.6704 5.74093 48.1442 5.3075 48.7313C4.87406 49.3183 4.59171 50.0009 4.48486 50.7201C4.378 51.4392 4.44985 52.1733 4.69419 52.8589C4.93854 53.5444 5.34802 54.1608 5.88726 54.6547C6.4265 55.1487 7.07927 55.5053 7.78913 55.6938C8.499 55.8824 9.24461 55.8971 9.96152 55.7367C10.666 56.5319 11.5879 57.1085 12.6162 57.3972C12.2335 58.3467 11.7741 59.2642 11.2424 60.1407C11.1368 60.315 11.0797 60.5138 11.0771 60.717C11.0746 60.9202 11.1265 61.1204 11.2277 61.2972C11.3289 61.474 11.4758 61.6211 11.6532 61.7235C11.8307 61.8259 12.0325 61.8799 12.2379 61.88H41.3136C41.5144 61.8812 41.712 61.8303 41.8866 61.7324C42.0613 61.6345 42.207 61.493 42.3091 61.3221C42.9031 60.3454 43.4158 59.3225 43.8422 58.2636C44.5009 58.59 45.2256 58.7649 45.9623 58.7751C46.6989 58.7853 47.4284 58.6305 48.096 58.3225C48.7636 58.0144 49.3521 57.561 49.8175 56.9962C50.2828 56.4314 50.613 55.7698 50.7832 55.0609C50.9534 54.3521 50.9592 53.6143 50.8003 52.9029C50.6414 52.1915 50.3218 51.5249 49.8655 50.9529C49.4091 50.3809 48.8279 49.9184 48.1652 49.6C47.5026 49.2816 46.7757 49.1156 46.039 49.1144C45.8171 49.113 45.5954 49.1261 45.3753 49.1537V44.6579H46.039C46.347 44.6579 46.6424 44.5369 46.8602 44.3215C47.078 44.1061 47.2004 43.8139 47.2004 43.5093V41.6978C47.2022 40.7776 47.0205 39.8661 46.6658 39.0154C46.3111 38.1646 45.7904 37.3914 45.1334 36.7398C44.4763 36.0882 43.6959 35.571 42.8366 35.2179C41.9773 34.8647 41.0561 34.6825 40.1256 34.6817H34.1525V4.28702C34.1525 3.28378 33.75 2.32153 33.0333 1.61151C32.3165 0.901495 31.3442 0.501739 30.3298 0.5H29.1351C28.1207 0.501739 27.1483 0.901495 26.4316 1.61151C25.7149 2.32153 25.3124 3.28378 25.3124 4.28702V34.6817H19.3393C18.4085 34.6825 17.4869 34.8647 16.6273 35.2178C15.7677 35.5708 14.9868 36.0879 14.3292 36.7394C13.6716 37.3909 13.1503 38.1641 12.7948 39.0149C12.4394 39.8656 12.257 40.7773 12.2578 41.6978V43.529C12.2578 43.8336 12.3802 44.1258 12.598 44.3412C12.8158 44.5566 13.1112 44.6776 13.4193 44.6776H14.0431V46.6466C13.0331 46.6579 12.0458 46.944 11.1893 47.4735ZM43.0856 50.2629C43.0835 53.5241 42.2431 56.7311 40.6433 59.5828H34.4512C35.8715 56.6765 36.611 53.4909 36.6148 50.2629C36.6148 49.9583 36.4924 49.6662 36.2746 49.4508C36.0568 49.2354 35.7614 49.1144 35.4533 49.1144C35.1453 49.1144 34.8499 49.2354 34.6321 49.4508C34.4143 49.6662 34.2919 49.9583 34.2919 50.2629C34.2898 53.5257 33.4445 56.7339 31.8363 59.5828H23.0094C24.4297 56.6765 25.1692 53.4909 25.173 50.2629C25.173 49.9583 25.0506 49.6662 24.8328 49.4508C24.615 49.2354 24.3196 49.1144 24.0116 49.1144C23.7035 49.1144 23.4081 49.2354 23.1903 49.4508C22.9725 49.6662 22.8501 49.9583 22.8501 50.2629C22.8448 53.5253 21.9997 56.7327 20.3945 59.5828H14.2223C14.5435 58.9065 14.8292 58.2142 15.0785 57.5088C16.2483 57.3086 17.3218 56.7413 18.1403 55.8909C18.9587 55.0404 19.4786 53.9521 19.623 52.7867C19.7674 51.6214 19.5287 50.4411 18.9421 49.4204C18.3555 48.3996 17.4523 47.5928 16.366 47.1191V44.6579H43.0856V50.2629ZM45.3753 51.5034C45.7912 51.388 46.2298 51.3782 46.6506 51.4749C47.0713 51.5716 47.4606 51.7717 47.7824 52.0567C48.1043 52.3416 48.3482 52.7023 48.4917 53.1052C48.6352 53.5081 48.6736 53.9403 48.6034 54.3618C48.5332 54.7833 48.3566 55.1805 48.09 55.5166C47.8234 55.8528 47.4754 56.1169 47.0781 56.2848C46.6809 56.4526 46.2472 56.5186 45.8174 56.4767C45.3875 56.4349 44.9752 56.2864 44.6187 56.0452C44.6158 56.03 44.6158 56.0144 44.6187 55.9993C45.0339 54.532 45.2876 53.0246 45.3753 51.5034ZM27.6352 4.28702C27.6352 3.89302 27.793 3.51506 28.0741 3.23584C28.3552 2.95663 28.7367 2.79889 29.1351 2.79715H30.3298C30.7282 2.79889 31.1097 2.95663 31.3908 3.23584C31.6719 3.51506 31.8297 3.89302 31.8297 4.28702V34.6817H27.6352V4.28702ZM14.5807 42.3542V41.6978C14.5825 40.4509 15.0846 39.2556 15.9768 38.3745C16.869 37.4934 18.0784 36.9985 19.3393 36.9985H40.1256C41.3854 37.0002 42.593 37.4959 43.4838 38.3768C44.3746 39.2577 44.8758 40.452 44.8775 41.6978V42.3542H14.5807ZM14.5807 48.9765C14.9969 49.0367 15.397 49.1776 15.7579 49.3912C16.1189 49.6047 16.4336 49.8867 16.684 50.221C16.9344 50.5552 17.1155 50.9351 17.217 51.3387C17.3185 51.7424 17.3383 52.1619 17.2752 52.5732C17.1795 53.2195 16.8846 53.8208 16.4308 54.2954C15.977 54.7699 15.3863 55.0946 14.7392 55.2251C14.092 55.3557 13.4199 55.2859 12.8144 55.0251C12.2089 54.7643 11.6994 54.3252 11.3552 53.7677C11.2048 53.5272 10.97 53.35 10.6957 53.2701C10.4214 53.1901 10.1269 53.2131 9.86861 53.3346C9.55765 53.477 9.21739 53.5457 8.87487 53.5352C8.53236 53.5248 8.19703 53.4354 7.89553 53.2744C7.59403 53.1133 7.33468 52.8849 7.13808 52.6073C6.94149 52.3298 6.81307 52.0107 6.76302 51.6754C6.71298 51.3402 6.74269 50.998 6.84981 50.6761C6.95692 50.3542 7.13848 50.0615 7.38006 49.8211C7.62163 49.5807 7.91656 49.3994 8.24142 49.2916C8.56627 49.1837 8.91209 49.1522 9.25139 49.1997C9.68124 49.2636 10.0827 49.4507 10.4062 49.7379C10.619 49.9256 10.8942 50.0294 11.1794 50.0294C11.4645 50.0294 11.7398 49.9256 11.9526 49.7379C12.3099 49.4239 12.7339 49.1931 13.1933 49.0625C13.6527 48.9319 14.1359 48.9048 14.6073 48.9831L14.5807 48.9765Z" fill="url(#paint0_linear_790_208)"/>
<defs>
<linearGradient id="paint0_linear_790_208" x1="27.676" y1="0.5" x2="27.676" y2="61.88" gradientUnits="userSpaceOnUse">
<stop stop-color="#471BFF"/>
<stop offset="1" stop-color="#7C5CFF"/>
</linearGradient>
</defs>
</svg>
