<svg width="54" height="54" viewBox="0 0 54 54" fill="none" xmlns="http://www.w3.org/2000/svg">
<circle cx="27" cy="27" r="27" fill="url(#paint0_linear_455_84)"/>
<path d="M20.8547 24.2906H15.0359C14.7406 24.2906 14.5 24.5313 14.5 24.8266C14.5 25.1219 14.7406 25.3625 15.0359 25.3625H20.8547C21.15 25.3625 21.3906 25.1219 21.3906 24.8266C21.3906 24.5313 21.15 24.2906 20.8547 24.2906Z" fill="white"/>
<path d="M20.8548 27.4515H18.1751C17.8798 27.4515 17.6392 27.6922 17.6392 27.9875C17.6392 28.2828 17.8798 28.5234 18.1751 28.5234H20.8548C21.1501 28.5234 21.3907 28.2828 21.3907 27.9875C21.3907 27.6922 21.1501 27.4515 20.8548 27.4515Z" fill="white"/>
<path d="M20.8546 30.6125H16.4358C16.1405 30.6125 15.8999 30.8531 15.8999 31.1484C15.8999 31.4437 16.1405 31.6844 16.4358 31.6844H20.8546C21.1499 31.6844 21.3905 31.4437 21.3905 31.1484C21.3905 30.8531 21.1499 30.6125 20.8546 30.6125Z" fill="white"/>
<path d="M40.5205 24.0281C40.083 23.0984 39.5033 22.2562 38.7923 21.5234C38.4533 21.1625 38.0705 20.8344 37.6767 20.5391L38.3767 19.6094C38.5517 19.3687 38.508 19.0297 38.2673 18.8547C38.0267 18.6797 37.6876 18.7234 37.5126 18.9641L36.7689 19.9484C36.2767 19.6531 35.7517 19.4125 35.2158 19.2156C34.7455 19.0516 34.2642 18.9203 33.772 18.8219C33.4548 18.7672 33.1267 18.7234 32.8095 18.7016V17.0719H33.8923C34.1876 17.0719 34.4283 16.8313 34.4283 16.5359C34.4283 16.2406 34.1876 16 33.8923 16H30.6439C30.3486 16 30.108 16.2406 30.108 16.5359C30.108 16.8313 30.3486 17.0719 30.6439 17.0719H31.7267V18.6578C30.4798 18.7016 29.2439 18.9969 28.1064 19.5219C27.1767 19.9594 26.3345 20.5281 25.5908 21.2391C24.5517 22.2234 23.7533 23.4594 23.2611 24.8047C23.0861 25.275 22.9548 25.7781 22.8564 26.2812C22.758 26.7844 22.7142 27.2875 22.6923 27.7906C22.6595 29.2344 22.9658 30.6781 23.5892 31.9906C24.0267 32.9094 24.5955 33.7406 25.3064 34.4734C26.3017 35.5125 27.5376 36.3109 28.883 36.7922C29.3533 36.9562 29.8345 37.0875 30.3267 37.1859C30.8189 37.2734 31.3111 37.3281 31.8142 37.3391C31.8908 37.3391 31.9783 37.3391 32.0548 37.3391C33.4111 37.3391 34.7673 37.0437 35.9923 36.4641C36.9111 36.0375 37.7533 35.4688 38.4861 34.7687C39.5361 33.7734 40.3455 32.5375 40.8376 31.1812C41.0126 30.7109 41.1439 30.2078 41.2314 29.7156C41.3298 29.2125 41.3845 28.6984 41.3955 28.1953C41.4392 26.7625 41.133 25.3187 40.5205 24.0281ZM40.1814 29.5078C40.0939 29.9562 39.9845 30.3828 39.8314 30.8094C39.3939 32.0016 38.683 33.1062 37.7533 33.9812C37.108 34.5937 36.3642 35.1078 35.5439 35.4797C34.3955 36.0156 33.1048 36.2891 31.858 36.2453C31.4205 36.2344 30.983 36.1906 30.5455 36.1031C30.108 36.0266 29.6814 35.9062 29.2658 35.7641C28.0736 35.3375 26.9798 34.6266 26.1048 33.7078C25.4814 33.0625 24.9673 32.3187 24.5845 31.5094C24.0376 30.3609 23.7642 29.0703 23.797 27.8016C23.808 27.3531 23.8517 26.9047 23.9392 26.4672C24.0267 26.0187 24.147 25.5812 24.2892 25.1656C24.7158 23.9734 25.4267 22.8906 26.3455 22.0156C27.0017 21.3922 27.7455 20.8781 28.5767 20.4953C29.6595 19.9922 30.8626 19.7297 32.0548 19.7297C32.1205 19.7297 32.197 19.7297 32.2626 19.7297C32.7001 19.7406 33.1376 19.7844 33.5751 19.8719C34.0126 19.9484 34.4392 20.0687 34.8548 20.2219C36.047 20.6484 37.1408 21.3484 38.0158 22.2672C38.6392 22.9234 39.1533 23.6672 39.547 24.4875C40.083 25.6359 40.3564 26.9047 40.3236 28.1734C40.3126 28.6109 40.2689 29.0703 40.1814 29.5078Z" fill="white"/>
<path d="M35.4017 24.2469L33.0939 26.3359C32.9735 26.2594 32.8532 26.2047 32.722 26.15C32.6235 26.1172 32.5251 26.0844 32.4267 26.0734C32.3173 26.0516 32.2189 26.0406 32.1204 26.0406C31.8251 26.0297 31.5189 26.0953 31.2454 26.2266C31.0485 26.3141 30.8735 26.4344 30.7204 26.5875C30.5017 26.7953 30.3376 27.0469 30.2392 27.3313C30.2064 27.4297 30.1735 27.5281 30.1517 27.6375C30.1298 27.7469 30.1189 27.8453 30.1189 27.9547C30.1079 28.2609 30.1735 28.5563 30.3048 28.8297C30.3923 29.0266 30.5126 29.1906 30.6657 29.3438C30.8735 29.5625 31.136 29.7266 31.4095 29.825C31.5079 29.8578 31.6064 29.8906 31.7048 29.9016C31.8032 29.9234 31.9126 29.9344 32.011 29.9344C32.0329 29.9344 32.0439 29.9344 32.0657 29.9344C32.3501 29.9344 32.6345 29.8688 32.886 29.7484C33.072 29.6609 33.2579 29.5406 33.411 29.3984C33.6298 29.1906 33.7939 28.9281 33.9032 28.6547C33.936 28.5563 33.9689 28.4578 33.9907 28.3484C34.0126 28.2391 34.0235 28.1406 34.0235 28.0313C34.0345 27.7359 33.9689 27.4297 33.8376 27.1563C33.8376 27.1453 33.8267 27.1453 33.8267 27.1344L36.1454 25.0453C36.3642 24.8484 36.386 24.4984 36.1892 24.2797C35.9704 24.0719 35.6314 24.05 35.4017 24.2469ZM32.9189 28.1516C32.9079 28.1953 32.897 28.25 32.886 28.2938C32.8423 28.4141 32.7657 28.5344 32.6673 28.6219C32.6017 28.6875 32.5251 28.7422 32.4376 28.775C32.3173 28.8297 32.186 28.8516 32.0548 28.8516C32.011 28.8516 31.9564 28.8406 31.9126 28.8406C31.8689 28.8297 31.8251 28.8188 31.7814 28.8078C31.661 28.7641 31.5407 28.6875 31.4532 28.5891C31.3876 28.5234 31.3329 28.4469 31.2892 28.3594C31.2345 28.2391 31.2017 28.1078 31.2017 27.9766C31.2017 27.9328 31.2126 27.8781 31.2126 27.8344C31.2235 27.7906 31.2345 27.7359 31.2454 27.6922C31.2892 27.5719 31.3657 27.4516 31.4642 27.3641C31.5298 27.2984 31.6064 27.2438 31.6939 27.2C31.8142 27.1453 31.9345 27.1234 32.0548 27.1234C32.0657 27.1234 32.0657 27.1234 32.0767 27.1234C32.1204 27.1234 32.1642 27.1344 32.2189 27.1344C32.2626 27.1453 32.3064 27.1563 32.3501 27.1672C32.4814 27.2109 32.5907 27.2875 32.6782 27.3859C32.7439 27.4516 32.7985 27.5391 32.8423 27.6156C32.897 27.7359 32.9298 27.8672 32.9189 27.9984C32.9298 28.0531 32.9189 28.1078 32.9189 28.1516Z" fill="white"/>
<defs>
<linearGradient id="paint0_linear_455_84" x1="27" y1="0" x2="27" y2="54" gradientUnits="userSpaceOnUse">
<stop stop-color="#471BFF"/>
<stop offset="1" stop-color="#7C5CFF"/>
</linearGradient>
</defs>
</svg>
