<svg width="40" height="40" viewBox="0 0 40 40" fill="none" xmlns="http://www.w3.org/2000/svg">
<circle cx="20" cy="20" r="20" fill="url(#paint0_linear_467_59)"/>
<path d="M26.3141 10H15.7167C15.6139 10 15.5153 10.0382 15.4425 10.1061C15.3698 10.1741 15.329 10.2662 15.329 10.3623V13.0722H12.5271C12.4245 13.0728 12.3263 13.1112 12.2537 13.179C12.1812 13.2468 12.1401 13.3386 12.1394 13.4345V16.3617L10.1182 18.0041L10.1027 18.021C10.085 18.037 10.0694 18.0548 10.0561 18.0741C10.0509 18.0808 10.0465 18.0881 10.0432 18.0959C10.0311 18.1157 10.0216 18.1367 10.0148 18.1587V18.1804C10.0065 18.2096 10.0022 18.2396 10.0019 18.2698V29.6841C10.0019 29.6841 10.0019 29.7035 10.0019 29.7131C10.0006 29.7203 10.0006 29.7277 10.0019 29.7349C9.99938 29.7476 9.99938 29.7607 10.0019 29.7735C10.0007 29.7799 10.0007 29.7864 10.0019 29.7928C10.009 29.8158 10.0195 29.8377 10.0329 29.858C10.032 29.8636 10.032 29.8693 10.0329 29.8749L10.0587 29.9088L10.0716 29.9232L10.0897 29.9426C10.1049 29.956 10.1214 29.9681 10.1388 29.9788H10.1544L10.2035 29.9981H10.2241H10.2396C10.2689 30.0006 10.2983 30.0006 10.3275 29.9981H28.6843C28.7135 30.0006 28.7429 30.0006 28.7722 29.9981H28.7877H28.8084L28.8575 29.9788H28.873C28.8904 29.9681 28.9069 29.956 28.9221 29.9426L28.9402 29.9232V29.9088L28.966 29.8749C28.9669 29.8693 28.9669 29.8636 28.966 29.858C28.9794 29.8377 28.9899 29.8158 28.997 29.7928C28.9982 29.7864 28.9982 29.7799 28.997 29.7735C28.9995 29.7607 28.9995 29.7476 28.997 29.7349C28.9983 29.7277 28.9983 29.7203 28.997 29.7131C28.9983 29.7035 28.9983 29.6938 28.997 29.6841V18.277C29.001 18.2473 29.001 18.2173 28.997 18.1876V18.1659C28.9903 18.144 28.9807 18.1229 28.9686 18.1031C28.9695 18.0959 28.9695 18.0886 28.9686 18.0814C28.9553 18.062 28.9397 18.0442 28.9221 18.0282L28.9066 18.0113L26.6682 16.1927V10.3623C26.6686 10.2714 26.6324 10.1837 26.5668 10.1166C26.5012 10.0495 26.411 10.0079 26.3141 10ZM25.9264 19.5402L21.3023 22.3829C20.7404 22.1645 20.1378 22.052 19.5292 22.052C18.9206 22.052 18.318 22.1645 17.756 22.3829L16.107 21.3685V10.7246H25.929L25.9264 19.5402ZM11.2735 29.3219L16.7738 23.8876C17.1282 23.5373 17.5554 23.2583 18.0291 23.0676C18.5029 22.8769 19.0133 22.7786 19.5292 22.7786C20.045 22.7786 20.5554 22.8769 21.0292 23.0676C21.503 23.2583 21.9301 23.5373 22.2845 23.8876L27.7848 29.3219H11.2735ZM28.2966 28.7736L22.848 23.3876C22.6148 23.1574 22.3547 22.9525 22.0725 22.7766L28.2966 18.9484V28.7736ZM10.7618 28.7736V18.9484L16.9858 22.7766C16.7036 22.9525 16.4435 23.1574 16.2104 23.3876L10.7618 28.7736ZM15.3316 13.7992V20.8927L12.9148 19.4073V13.7967L15.3316 13.7992ZM12.1394 18.9291L11.0125 18.2359L12.1394 17.3206V18.9291ZM26.7018 19.0571V17.1467L28.0588 18.2359L26.7018 19.0571Z" fill="white" stroke="white" stroke-width="0.1"/>
<path d="M18.0098 12.2027C17.907 12.2027 17.8083 12.2409 17.7356 12.3088C17.6629 12.3767 17.6221 12.4689 17.6221 12.565V14.8184C17.6221 14.9145 17.6629 15.0066 17.7356 15.0746C17.8083 15.1425 17.907 15.1807 18.0098 15.1807H24.2648C24.3677 15.1807 24.4663 15.1425 24.539 15.0746C24.6117 15.0066 24.6525 14.9145 24.6525 14.8184V12.565C24.6525 12.4689 24.6117 12.3767 24.539 12.3088C24.4663 12.2409 24.3677 12.2027 24.2648 12.2027H18.0098ZM23.8771 14.4682H18.3975V12.9273H23.8771V14.4682Z" fill="white" stroke="white" stroke-width="0.1"/>
<path d="M24.2644 16.2289H20.2193C20.1164 16.2289 20.0178 16.2671 19.9451 16.335C19.8724 16.4029 19.8315 16.4951 19.8315 16.5912C19.8315 16.6873 19.8724 16.7794 19.9451 16.8473C20.0178 16.9153 20.1164 16.9535 20.2193 16.9535H24.2644C24.3672 16.9535 24.4658 16.9153 24.5385 16.8473C24.6112 16.7794 24.6521 16.6873 24.6521 16.5912C24.6521 16.4951 24.6112 16.4029 24.5385 16.335C24.4658 16.2671 24.3672 16.2289 24.2644 16.2289Z" fill="white" stroke="white" stroke-width="0.1"/>
<path d="M24.2648 18.1755H18.0098C17.907 18.1755 17.8083 18.2137 17.7356 18.2816C17.6629 18.3496 17.6221 18.4417 17.6221 18.5378C17.6221 18.6339 17.6629 18.7261 17.7356 18.794C17.8083 18.8619 17.907 18.9001 18.0098 18.9001H24.2648C24.3677 18.9001 24.4663 18.8619 24.539 18.794C24.6117 18.7261 24.6525 18.6339 24.6525 18.5378C24.6525 18.4417 24.6117 18.3496 24.539 18.2816C24.4663 18.2137 24.3677 18.1755 24.2648 18.1755Z" fill="white" stroke="white" stroke-width="0.1"/>
<path d="M21.6749 20.1246H18.0098C17.907 20.1246 17.8083 20.1628 17.7356 20.2307C17.6629 20.2987 17.6221 20.3908 17.6221 20.4869C17.6221 20.583 17.6629 20.6752 17.7356 20.7431C17.8083 20.811 17.907 20.8492 18.0098 20.8492H21.6749C21.7778 20.8492 21.8764 20.811 21.9491 20.7431C22.0218 20.6752 22.0626 20.583 22.0626 20.4869C22.0626 20.3908 22.0218 20.2987 21.9491 20.2307C21.8764 20.1628 21.7778 20.1246 21.6749 20.1246Z" fill="white" stroke="white" stroke-width="0.1"/>
<defs>
<linearGradient id="paint0_linear_467_59" x1="20" y1="0" x2="20" y2="40" gradientUnits="userSpaceOnUse">
<stop stop-color="#471BFF"/>
<stop offset="1" stop-color="#7C5CFF"/>
</linearGradient>
</defs>
</svg>
