<svg width="40" height="40" viewBox="0 0 40 40" fill="none" xmlns="http://www.w3.org/2000/svg">
<circle cx="20" cy="20" r="20" fill="url(#paint0_linear_467_50)"/>
<path d="M29 21.1203C29 20.8172 28.7928 20.5637 28.5108 20.4809C28.4964 20.476 28.4823 20.4711 28.4677 20.4677C28.4541 20.4648 28.4402 20.4631 28.4263 20.4609C28.411 20.4588 28.3959 20.4571 28.3805 20.4563C28.3593 20.4544 28.3385 20.45 28.3164 20.45H24.6116V12.9461C24.6116 11.0326 20.8473 10 17.3057 10C13.764 10 10 11.0324 10 12.9461V24.6768C10 26.3535 12.9262 27.3266 15.7915 27.5619V29.3297C15.7915 29.5014 15.8595 29.6564 15.968 29.7751C15.971 29.7785 15.9727 29.7824 15.9757 29.7858C15.9776 29.788 15.9799 29.7894 15.9818 29.7916C15.992 29.8021 16.0029 29.8115 16.0138 29.8213C16.0281 29.8341 16.0425 29.8463 16.0579 29.857C16.1735 29.9454 16.3171 30 16.4748 30H28.3167C28.4734 30 28.6162 29.9458 28.7319 29.8584C28.7452 29.8492 28.7574 29.8383 28.77 29.8276C28.7839 29.8154 28.7977 29.8038 28.8106 29.7907C28.8123 29.789 28.8143 29.7877 28.8158 29.7858C28.8185 29.7826 28.8203 29.7792 28.8227 29.7761C28.9317 29.6573 29 29.5016 29 29.3297V21.1203ZM16.685 21.691L20.7644 25.1481L16.685 28.6055V21.691ZM22.3955 25.3725L17.6213 21.3265H27.1694L22.3955 25.3725ZM21.4475 25.7274L22.1033 26.2833C22.1873 26.3544 22.2912 26.3899 22.3955 26.3899C22.4997 26.3899 22.6037 26.3542 22.6876 26.2833L23.3435 25.7274L27.3506 29.1233H17.4406L21.4475 25.7274ZM24.0271 25.1484L28.1065 21.691V28.6055L24.0271 25.1484ZM17.3057 10.8765C20.9756 10.8765 23.7178 11.9691 23.7178 12.9459C23.7178 13.9229 20.9756 15.0155 17.3057 15.0155C13.6358 15.0155 10.8935 13.9229 10.8935 12.9459C10.8935 11.9691 13.6358 10.8765 17.3057 10.8765ZM10.8935 14.4154C12.2188 15.3825 14.8172 15.8923 17.3057 15.8923C19.7941 15.8923 22.3928 15.3823 23.7178 14.4154V16.8564C23.7178 17.8334 20.9756 18.9261 17.3057 18.9261C13.6358 18.9261 10.8935 17.8334 10.8935 16.8564V14.4154ZM10.8935 18.3257C12.2188 19.2928 14.8172 19.8026 17.3057 19.8026C19.7941 19.8026 22.3928 19.2925 23.7178 18.3257V20.45H16.4748C16.4528 20.45 16.4322 20.4544 16.4107 20.4563C16.3953 20.4568 16.38 20.4588 16.3649 20.4609C16.3512 20.4631 16.3374 20.4648 16.324 20.4677C16.3092 20.4711 16.2948 20.4762 16.2802 20.4811C15.9987 20.5639 15.7917 20.8175 15.7917 21.1203V22.7722C12.8425 22.5209 10.894 21.5616 10.894 20.7665V18.3257H10.8935ZM10.8935 24.6768V22.2287C11.9782 23.0187 13.8979 23.4962 15.7912 23.6519V26.6825C12.8423 26.4312 10.8935 25.4719 10.8935 24.6768ZM11.8145 16.3712C11.9116 16.1487 12.1745 16.0458 12.4011 16.141L12.6501 16.2456C12.8769 16.3408 12.9821 16.5987 12.8848 16.821C12.8123 16.9873 12.6472 17.0867 12.4738 17.0867C12.4152 17.0867 12.3555 17.0752 12.2981 17.0512L12.049 16.9465C11.8225 16.8513 11.7172 16.5936 11.8145 16.3712ZM11.8145 20.3133C11.9118 20.0911 12.1745 19.9879 12.4013 20.0833L12.6504 20.188C12.8772 20.2834 12.9821 20.5411 12.8848 20.7636C12.8123 20.9297 12.6474 21.0292 12.4741 21.0292C12.4154 21.0292 12.3558 21.0178 12.2983 20.9935L12.0492 20.8889C11.8225 20.7934 11.7172 20.5357 11.8145 20.3133ZM12.8848 24.7057C12.8123 24.872 12.6472 24.9713 12.4738 24.9713C12.4152 24.9713 12.3555 24.9599 12.2981 24.9359L12.049 24.8312C11.8222 24.736 11.717 24.4783 11.8143 24.2559C11.9113 24.0334 12.1743 23.9304 12.4008 24.0256L12.6499 24.1303C12.8769 24.2255 12.9819 24.4832 12.8848 24.7057Z" fill="white"/>
<defs>
<linearGradient id="paint0_linear_467_50" x1="20" y1="0" x2="20" y2="40" gradientUnits="userSpaceOnUse">
<stop stop-color="#471BFF"/>
<stop offset="1" stop-color="#7C5CFF"/>
</linearGradient>
</defs>
</svg>
