<svg width="40" height="40" viewBox="0 0 40 40" fill="none" xmlns="http://www.w3.org/2000/svg">
<circle cx="20" cy="20" r="20" fill="url(#paint0_linear_460_346)"/>
<path d="M27.5706 20.6149C27.6739 20.7182 27.6972 20.8716 27.6339 21.0015C27.5706 21.1315 27.4306 21.2015 27.2873 21.1815C24.3744 20.7516 21.1716 21.8714 18.932 24.1044M27.5706 20.6149L19.0026 24.1752L18.932 24.1044M27.5706 20.6149L18.3521 11.4298M27.5706 20.6149L18.3521 11.4298M18.932 24.1044L19.0027 24.1751L18.932 24.1044ZM18.4228 11.3591C18.2926 11.2289 18.0896 11.1943 17.9208 11.2804C17.7503 11.3639 17.6609 11.5468 17.6865 11.7302L17.6866 11.7311C18.1115 14.5998 17.0013 17.7549 14.7788 19.9675L14.7788 19.9675L11.6161 23.1202C11.6161 23.1202 11.6161 23.1202 11.616 23.1203C11.1538 23.5791 10.9 24.1912 10.9 24.8442C10.9 25.4974 11.1539 26.1062 11.6161 26.5649L12.3825 27.328L12.3826 27.3281C12.8586 27.8006 13.4841 28.0404 14.1095 28.0404C14.7345 28.0404 15.3603 27.8042 15.8366 27.3279L16.4024 26.765L19.2879 29.6375C19.5976 29.9472 20.0035 30.1 20.4118 30.1C20.8201 30.1 21.2259 29.9472 21.5356 29.6375L21.569 29.6042C21.8674 29.3057 22.0348 28.9071 22.0348 28.4836C22.0348 28.0608 21.8712 27.6619 21.5688 27.363L18.4228 11.3591ZM18.4228 11.3591L18.3521 11.4298M18.4228 11.3591L18.4227 11.359L18.3521 11.4298M18.6162 24.5615L18.5454 24.491L18.6161 24.4202L18.687 24.4908L18.6162 24.5615ZM20.925 27.9419V27.9451L20.9543 27.9744C21.0891 28.1092 21.165 28.2905 21.165 28.4803C21.165 28.6701 21.0891 28.8514 20.9543 28.9862L20.921 29.0195C20.6401 29.3004 20.1801 29.3004 19.8992 29.0195L19.8991 29.0194L17.0173 26.1473L18.0689 25.0987L20.925 27.9419ZM18.6427 12.801L26.1917 20.3213C23.5264 20.2821 20.7743 21.3504 18.6996 23.2575L17.2662 21.8305L17.2662 21.8305L15.6951 20.2658C17.6093 18.2006 18.6845 15.4545 18.6427 12.801ZM15.2254 26.7097C14.6112 27.3208 13.6111 27.3208 12.9969 26.7097L12.2305 25.9467C11.9325 25.6487 11.7699 25.2575 11.7699 24.8376C11.7699 24.4176 11.9325 24.0264 12.2305 23.7285L15.0893 20.8827L18.0805 23.8644L15.2254 26.7097Z" fill="white" stroke="white" stroke-width="0.2"/>
<path d="M25.3062 13.9752L25.3062 13.9752L25.0007 14.0993H25.004V14.0993C25.116 14.0985 25.2224 14.0548 25.3062 13.9752ZM25.0007 13.9993V13.9993L27.0704 12.0697C27.2003 11.9397 27.2003 11.7297 27.0704 11.5997C26.9404 11.4698 26.7304 11.4698 26.6004 11.5997L24.7674 13.4328C24.6374 13.5627 24.6374 13.7727 24.7674 13.9027C24.8332 13.9685 24.9152 13.9986 25.0007 13.9993Z" fill="white" stroke="white" stroke-width="0.2"/>
<path d="M22.3347 13.0995C22.5733 13.0995 22.768 12.9048 22.768 12.6662V10.3333C22.768 10.0947 22.5733 9.9 22.3347 9.9C22.0962 9.9 21.9015 10.0947 21.9015 10.3333V12.6662C21.9015 12.9048 22.0962 13.0995 22.3347 13.0995Z" fill="white" stroke="white" stroke-width="0.2"/>
<path d="M28.0002 15.2324H25.6673C25.4287 15.2324 25.234 15.4271 25.234 15.6657C25.234 15.9042 25.4287 16.099 25.6673 16.099H28.0002C28.2387 16.099 28.4335 15.9042 28.4335 15.6657C28.4335 15.4271 28.2387 15.2324 28.0002 15.2324Z" fill="white" stroke="white" stroke-width="0.2"/>
<defs>
<linearGradient id="paint0_linear_460_346" x1="20" y1="0" x2="20" y2="40" gradientUnits="userSpaceOnUse">
<stop stop-color="#471BFF"/>
<stop offset="1" stop-color="#7C5CFF"/>
</linearGradient>
</defs>
</svg>
