<svg width="62" height="62" viewBox="0 0 62 62" fill="none" xmlns="http://www.w3.org/2000/svg">
<path d="M57.6493 53.7229H55.6023V14.8292C55.6023 12.9291 54.8474 11.1067 53.5038 9.76309C52.1602 8.41947 50.3378 7.66463 48.4377 7.66463C46.5375 7.66463 44.7151 8.41947 43.3715 9.76309C42.0279 11.1067 41.273 12.9291 41.273 14.8292V45.5348C41.273 45.8062 41.1652 46.0665 40.9733 46.2585C40.7813 46.4504 40.521 46.5583 40.2495 46.5583H39.226V13.5601C39.2241 12.8773 39.0509 12.2058 38.7224 11.6072L33.831 2.63302C33.4803 1.98675 32.9613 1.44733 32.3291 1.07185C31.6968 0.696363 30.9748 0.498779 30.2395 0.500007H13.4129C12.6781 0.498664 11.9565 0.695873 11.3245 1.07079C10.6925 1.44571 10.1735 1.9844 9.82241 2.62995L4.93 11.6062C4.60176 12.2053 4.42865 12.877 4.42642 13.5601V48.2829C3.30767 48.8132 2.34554 49.6245 1.63398 50.6376C0.922425 51.6508 0.485754 52.8312 0.366607 54.0635C0.247461 55.2958 0.449911 56.5379 0.954191 57.6686C1.45847 58.7993 2.24735 59.78 3.24379 60.5147C4.24023 61.2495 5.41019 61.7133 6.63942 61.8609C7.86865 62.0085 9.11515 61.8348 10.2572 61.3568C11.3993 60.8788 12.3978 60.1128 13.1554 59.1335C13.913 58.1544 14.4038 56.9954 14.5797 55.7699H33.0849V58.8405C33.0849 59.6548 33.4084 60.4358 33.9842 61.0117C34.5601 61.5875 35.3411 61.911 36.1554 61.911C36.9698 61.911 37.7508 61.5875 38.3267 61.0117C38.9025 60.4358 39.226 59.6548 39.226 58.8405V52.6994H40.2495C42.1489 52.6969 43.9699 51.9413 45.313 50.5982C46.6561 49.2551 47.4117 47.4342 47.4141 45.5348V14.8292C47.4141 14.5578 47.522 14.2975 47.7139 14.1055C47.9059 13.9136 48.1662 13.8057 48.4377 13.8057C48.7091 13.8057 48.9694 13.9136 49.1614 14.1055C49.3533 14.2975 49.4612 14.5578 49.4612 14.8292V53.7229H47.4141C46.3283 53.7229 45.287 54.1542 44.5192 54.922C43.7514 55.6898 43.3201 56.7311 43.3201 57.817V59.864C43.3201 60.4069 43.5357 60.9276 43.9196 61.3115C44.3035 61.6954 44.8242 61.911 45.3671 61.911H59.6963C60.2393 61.911 60.7599 61.6954 61.1438 61.3115C61.5277 60.9276 61.7434 60.4069 61.7434 59.864V57.817C61.7434 56.7311 61.312 55.6898 60.5443 54.922C59.7765 54.1542 58.7351 53.7229 57.6493 53.7229ZM51.5082 40.4172H53.5552V46.5583H51.5082V40.4172ZM37.179 14.8292V20.9703H6.47346V14.8292H37.179ZM6.47346 23.0174H37.179V43.4877H6.47346V23.0174ZM11.6217 3.60638C11.7969 3.28458 12.0559 3.0162 12.3712 2.82969C12.6866 2.64318 13.0465 2.54551 13.4129 2.54704H30.2395C30.6065 2.54577 30.9669 2.64387 31.2827 2.83092C31.5984 3.01797 31.8576 3.28699 32.0327 3.60945L36.9251 12.5877C36.9589 12.6492 36.9753 12.7177 37.0029 12.7822H6.6495C6.67714 12.7167 6.69352 12.6492 6.72729 12.5867L11.6217 3.60638ZM6.47346 45.5348H37.179V53.7229H14.5797C14.3326 52.0197 13.4811 50.4622 12.1808 49.3347C10.8805 48.2073 9.21802 47.5851 7.49698 47.5818C7.15429 47.5847 6.81224 47.612 6.47346 47.6637V45.5348ZM7.49698 59.864C6.48481 59.864 5.49538 59.5639 4.6538 59.0015C3.81222 58.4392 3.15628 57.6399 2.76894 56.7048C2.38161 55.7697 2.28026 54.7407 2.47772 53.748C2.67519 52.7553 3.16259 51.8434 3.8783 51.1277C4.594 50.412 5.50587 49.9246 6.49858 49.7272C7.4913 49.5297 8.52027 49.631 9.45539 50.0184C10.3905 50.4057 11.1898 51.0616 11.7521 51.9032C12.3144 52.7448 12.6146 53.7342 12.6146 54.7464C12.6129 56.1032 12.0732 57.4039 11.1139 58.3633C10.1545 59.3227 8.85375 59.8624 7.49698 59.864ZM37.179 58.8405C37.179 59.1119 37.0711 59.3723 36.8792 59.5642C36.6872 59.7562 36.4269 59.864 36.1554 59.864C35.884 59.864 35.6237 59.7562 35.4317 59.5642C35.2398 59.3723 35.1319 59.1119 35.1319 58.8405V55.7699H37.179V58.8405ZM48.4377 11.7587C47.6233 11.7587 46.8423 12.0822 46.2664 12.658C45.6906 13.2339 45.3671 14.0149 45.3671 14.8292V45.5348C45.3655 46.8915 44.8258 48.1923 43.8664 49.1516C42.907 50.111 41.6063 50.6507 40.2495 50.6523H39.226V48.6053H40.2495C41.0639 48.6053 41.8449 48.2818 42.4207 47.706C42.9966 47.1301 43.3201 46.3491 43.3201 45.5348V14.8292C43.3201 13.472 43.8592 12.1703 44.819 11.2106C45.7787 10.2508 47.0804 9.71166 48.4377 9.71166C49.7949 9.71166 51.0966 10.2508 52.0563 11.2106C53.0161 12.1703 53.5552 13.472 53.5552 14.8292V38.3701H51.5082V14.8292C51.5082 14.0149 51.1847 13.2339 50.6089 12.658C50.033 12.0822 49.252 11.7587 48.4377 11.7587ZM51.5082 48.6053H53.5552V53.7229H51.5082V48.6053ZM45.3671 59.864V57.817C45.3671 57.2741 45.5828 56.7534 45.9667 56.3695C46.3506 55.9856 46.8712 55.7699 47.4141 55.7699H57.6493C58.1922 55.7699 58.7129 55.9856 59.0968 56.3695C59.4807 56.7534 59.6963 57.2741 59.6963 57.817V59.864H45.3671Z" fill="#471BFF"/>
</svg>
