<svg width="171" height="248" viewBox="0 0 171 248" fill="none" xmlns="http://www.w3.org/2000/svg">
<g opacity="0.75">
<path d="M144.574 48.4498C142.106 44.337 139.227 40.3614 135.937 36.797C133.469 34.0551 130.728 31.4503 127.849 29.1198C114.688 18.1524 97.6889 11.709 79.0445 11.9832C38.877 12.5316 5.97522 45.0225 5.01559 85.1906C4.46723 108.908 14.749 130.157 31.337 144.278C33.9417 146.471 36.2723 149.076 38.3286 151.818C42.1671 157.164 44.7719 163.471 45.8686 170.051C46.1428 172.107 46.417 174.164 46.417 176.357H43.2639C40.385 176.357 37.9173 178.688 37.9173 181.704C37.9173 182.526 38.0544 183.349 38.4657 184.034C38.4657 184.171 38.6028 184.172 38.6028 184.309C38.7399 184.583 38.877 184.857 39.1512 185.131C39.2882 185.268 39.2882 185.268 39.4253 185.405C39.6995 185.68 39.8366 185.817 40.1108 185.954C40.2479 185.954 40.2479 186.091 40.385 186.091C40.6591 186.228 40.7962 186.365 41.0704 186.502C41.2075 186.502 41.2075 186.639 41.3446 186.639C41.4817 186.639 41.6188 186.776 41.7559 186.776C41.893 186.776 42.0301 186.913 42.1671 186.913H42.3042C42.4413 186.913 42.4413 186.913 42.5784 186.913C42.7155 186.913 42.7155 186.913 42.8526 186.913C42.9897 186.913 43.1268 186.913 43.2639 186.913H46.417V193.631H43.2639C40.385 193.631 37.9173 195.961 37.9173 198.978C37.9173 199.8 38.0544 200.623 38.4657 201.308C38.4657 201.445 38.6028 201.445 38.6028 201.582C38.7399 201.856 38.877 201.994 39.0141 202.131C39.0141 202.268 39.1512 202.268 39.2882 202.405C39.4253 202.542 39.4253 202.542 39.5624 202.679C39.6995 202.816 39.6995 202.816 39.8366 202.953C39.9737 203.09 39.9737 203.09 40.1108 203.227C40.2479 203.364 40.2479 203.364 40.385 203.502C40.6591 203.639 40.7962 203.776 41.0704 203.913C41.2075 203.913 41.2075 204.05 41.3446 204.05C41.4817 204.05 41.6188 204.187 41.7559 204.187C41.893 204.187 42.0301 204.324 42.1671 204.324H42.3042C42.4413 204.324 42.4413 204.324 42.5784 204.324C42.7155 204.324 42.7155 204.324 42.8526 204.324C42.9897 204.324 43.1268 204.324 43.2639 204.324H46.417V211.042H43.2639C40.385 211.042 37.9173 213.372 37.9173 216.388C37.9173 217.211 38.0544 218.033 38.4657 218.719C38.4657 218.856 38.6028 218.856 38.6028 218.993C38.7399 219.267 38.877 219.541 39.1512 219.678C39.2882 219.816 39.2882 219.953 39.4253 219.953C39.6995 220.227 39.8366 220.364 40.1108 220.501C40.2479 220.501 40.2479 220.638 40.385 220.638C40.6591 220.775 40.7962 220.912 41.0704 221.049C41.2075 221.049 41.2075 221.187 41.3446 221.187C41.4817 221.187 41.6188 221.324 41.7559 221.324C41.893 221.324 42.0301 221.461 42.1671 221.461H42.3042C42.4413 221.461 42.4413 221.461 42.5784 221.461C42.7155 221.461 42.7155 221.461 42.8526 221.461C42.9897 221.461 43.1268 221.461 43.2639 221.461H51.4893C52.1748 228.452 60.8115 234.21 72.4642 235.993C73.0125 238.734 74.9318 240.928 77.6736 241.887C78.4962 242.162 79.4558 242.299 80.4154 242.299C84.3911 242.299 87.5441 239.557 88.2296 235.993C97.8259 234.484 105.503 230.235 108.108 224.751C108.245 224.614 108.245 224.477 108.382 224.203C108.519 223.928 108.656 223.654 108.656 223.38C108.656 223.243 108.793 223.106 108.793 222.969C108.793 222.832 108.93 222.695 108.93 222.557C109.067 222.283 109.067 222.009 109.067 221.735C109.067 221.598 109.067 221.461 109.067 221.324H117.293C120.172 221.324 122.639 218.993 122.639 215.977C122.639 215.84 122.639 215.566 122.639 215.429C122.639 215.292 122.639 215.017 122.502 214.88C122.502 214.606 122.365 214.469 122.365 214.195C122.365 214.058 122.228 213.921 122.228 213.784C122.091 213.646 122.091 213.509 121.954 213.235C121.817 213.098 121.817 212.961 121.68 212.961C121.68 212.824 121.543 212.824 121.543 212.687C121.268 212.413 121.131 212.138 120.857 212.001C119.898 211.179 118.801 210.767 117.43 210.767H114.277V204.05H117.43C120.309 204.05 122.776 201.719 122.776 198.703C122.776 198.429 122.776 198.292 122.776 198.155C122.776 198.018 122.776 197.744 122.639 197.607C122.639 197.332 122.502 197.195 122.502 196.921C122.365 196.647 122.228 196.236 122.091 195.961C121.954 195.824 121.954 195.687 121.817 195.55C121.817 195.55 121.817 195.413 121.68 195.413C121.543 195.276 121.406 195.139 121.406 195.002C121.268 194.865 121.131 194.728 120.994 194.591C120.035 193.768 118.938 193.357 117.567 193.357H114.414V186.639H117.567C120.446 186.639 122.914 184.309 122.914 181.293C122.914 181.018 122.914 180.881 122.914 180.744C122.914 180.607 122.914 180.47 122.776 180.196C122.776 180.059 122.639 179.922 122.639 179.647V179.51C122.639 179.373 122.502 179.236 122.502 179.099C122.365 178.962 122.365 178.825 122.228 178.551C122.091 178.414 122.091 178.277 121.954 178.277C121.954 178.139 121.817 178.139 121.817 178.002C121.543 177.728 121.406 177.454 121.131 177.317C120.172 176.494 119.075 176.083 117.704 176.083H114.551C114.551 169.914 115.922 163.882 118.527 158.398C121.131 152.914 124.833 147.979 129.494 144.003C145.533 130.157 155.815 109.73 155.815 86.8357C155.267 72.9894 151.428 59.6914 144.574 48.4498Z" fill="#D6E1DE"/>
<path d="M144.574 48.4498C142.106 44.337 139.227 40.3614 135.937 36.797C133.47 34.0551 130.728 31.4503 127.849 29.1198C114.688 18.1524 97.6889 11.709 79.0445 11.9832C38.877 12.5316 5.97522 45.0225 5.01559 85.1906C4.46723 108.908 14.749 130.157 31.337 144.278C33.9417 146.471 36.2723 149.076 38.3286 151.818C42.1671 157.164 44.7719 163.471 45.8686 170.051C46.1428 172.107 46.417 174.164 46.417 176.357H43.2639C40.385 176.357 37.9173 178.688 37.9173 181.704C37.9173 182.526 38.0544 183.349 38.4657 184.034C38.4657 184.171 38.6028 184.172 38.6028 184.309C38.7399 184.583 38.877 184.857 39.1512 185.131C39.2882 185.268 39.2882 185.268 39.4253 185.405C39.6995 185.68 39.8366 185.817 40.1108 185.954C40.2479 185.954 40.2479 186.091 40.385 186.091C40.6592 186.228 40.7962 186.365 41.0704 186.502C41.2075 186.502 41.2075 186.639 41.3446 186.639C41.4817 186.639 41.6188 186.776 41.7559 186.776C41.893 186.776 42.0301 186.913 42.1671 186.913H42.3042C42.4413 186.913 42.4413 186.913 42.5784 186.913C42.7155 186.913 42.7155 186.913 42.8526 186.913C42.9897 186.913 43.1268 186.913 43.2639 186.913H46.417V193.631H43.2639C40.385 193.631 37.9173 195.961 37.9173 198.978C37.9173 199.8 38.0544 200.623 38.4657 201.308C38.4657 201.445 38.6028 201.445 38.6028 201.582C38.7399 201.856 38.877 201.994 39.0141 202.131C39.0141 202.268 39.1512 202.268 39.2882 202.405C39.4253 202.542 39.4253 202.542 39.5624 202.679C39.6995 202.816 39.6995 202.816 39.8366 202.953C39.9737 203.09 39.9737 203.09 40.1108 203.227C40.2479 203.364 40.2479 203.364 40.385 203.502C40.6592 203.639 40.7962 203.776 41.0704 203.913C41.2075 203.913 41.2075 204.05 41.3446 204.05C41.4817 204.05 41.6188 204.187 41.7559 204.187C41.893 204.187 42.0301 204.324 42.1671 204.324H42.3042C42.4413 204.324 42.4413 204.324 42.5784 204.324C42.7155 204.324 42.7155 204.324 42.8526 204.324C42.9897 204.324 43.1268 204.324 43.2639 204.324H46.417V211.042H43.2639C40.385 211.042 37.9173 213.372 37.9173 216.388C37.9173 217.211 38.0544 218.033 38.4657 218.719C38.4657 218.856 38.6028 218.856 38.6028 218.993C38.7399 219.267 38.877 219.541 39.1512 219.678C39.2882 219.816 39.2882 219.953 39.4253 219.953C39.6995 220.227 39.8366 220.364 40.1108 220.501C40.2479 220.501 40.2479 220.638 40.385 220.638C40.6592 220.775 40.7962 220.912 41.0704 221.049C41.2075 221.049 41.2075 221.187 41.3446 221.187C41.4817 221.187 41.6188 221.324 41.7559 221.324C41.893 221.324 42.0301 221.461 42.1671 221.461H42.3042C42.4413 221.461 42.4413 221.461 42.5784 221.461C42.7155 221.461 42.7155 221.461 42.8526 221.461C42.9897 221.461 43.1268 221.461 43.2639 221.461H51.4893C52.1748 228.452 60.8115 234.21 72.4642 235.993C73.0125 238.734 74.9318 240.928 77.6736 241.887C78.4962 242.162 79.4558 242.299 80.4154 242.299C84.3911 242.299 87.5441 239.557 88.2296 235.993C97.8259 234.484 105.503 230.235 108.108 224.751C108.245 224.614 108.245 224.477 108.382 224.203C108.519 223.928 108.656 223.654 108.656 223.38C108.656 223.243 108.793 223.106 108.793 222.969C108.793 222.832 108.93 222.695 108.93 222.557C109.067 222.283 109.067 222.009 109.067 221.735C109.067 221.598 109.067 221.461 109.067 221.324H117.293C120.172 221.324 122.639 218.993 122.639 215.977C122.639 215.84 122.639 215.566 122.639 215.429C122.639 215.292 122.639 215.017 122.502 214.88C122.502 214.606 122.365 214.469 122.365 214.195C122.365 214.058 122.228 213.921 122.228 213.784C122.091 213.646 122.091 213.509 121.954 213.235C121.817 213.098 121.817 212.961 121.68 212.961C121.68 212.824 121.543 212.824 121.543 212.687C121.268 212.413 121.131 212.138 120.857 212.001C119.898 211.179 118.801 210.767 117.43 210.767H114.277V204.05H117.43C120.309 204.05 122.776 201.719 122.776 198.703C122.776 198.429 122.776 198.292 122.776 198.155C122.776 198.018 122.776 197.744 122.639 197.607C122.639 197.332 122.502 197.195 122.502 196.921C122.365 196.647 122.228 196.236 122.091 195.961C121.954 195.824 121.954 195.687 121.817 195.55C121.817 195.55 121.817 195.413 121.68 195.413C121.543 195.276 121.406 195.139 121.406 195.002C121.268 194.865 121.131 194.728 120.994 194.591C120.035 193.768 118.938 193.357 117.567 193.357H114.414V186.639H117.567C120.446 186.639 122.914 184.309 122.914 181.293C122.914 181.018 122.914 180.881 122.914 180.744C122.914 180.607 122.914 180.47 122.776 180.196C122.776 180.059 122.639 179.922 122.639 179.647V179.51C122.639 179.373 122.502 179.236 122.502 179.099C122.365 178.962 122.365 178.825 122.228 178.551C122.091 178.414 122.091 178.277 121.954 178.277C121.954 178.139 121.817 178.139 121.817 178.002C121.543 177.728 121.406 177.454 121.131 177.317C120.172 176.494 119.075 176.083 117.704 176.083H114.551C114.551 169.914 115.922 163.882 118.527 158.398C121.131 152.914 124.833 147.979 129.494 144.003C145.533 130.157 155.815 109.73 155.815 86.8358C155.267 72.9894 151.428 59.6914 144.574 48.4498Z" stroke="#D6E1DE" stroke-width="10" stroke-miterlimit="10"/>
</g>
<path d="M154.17 41.5952C151.703 37.4824 148.824 33.5067 145.534 29.9423C143.066 27.2005 140.324 24.5957 137.445 22.2651C124.284 11.2977 107.285 4.85437 88.6409 5.12856C48.4734 5.67693 15.5716 38.1679 14.612 78.336C14.0636 102.053 24.3454 123.302 40.9334 137.423C43.5381 139.616 45.8686 142.221 47.925 144.963C51.7635 150.31 54.3682 156.616 55.465 163.196C55.7392 165.253 56.0133 167.309 56.0133 169.503H52.8602C49.9813 169.503 47.5137 171.833 47.5137 174.849C47.5137 175.672 47.6508 176.494 48.0621 177.18C48.0621 177.317 48.1992 177.317 48.1992 177.454C48.3363 177.728 48.4733 178.002 48.7475 178.277C48.8846 178.414 48.8846 178.414 49.0217 178.551C49.2959 178.825 49.433 178.962 49.7072 179.099C49.8443 179.099 49.8443 179.236 49.9813 179.236C50.2555 179.373 50.3926 179.51 50.6668 179.647C50.8039 179.647 50.8039 179.785 50.941 179.785C51.0781 179.785 51.2152 179.922 51.3522 179.922C51.4893 179.922 51.6264 180.059 51.7635 180.059H51.9006C52.0377 180.059 52.0377 180.059 52.1748 180.059C52.3119 180.059 52.3119 180.059 52.449 180.059C52.5861 180.059 52.7232 180.059 52.8602 180.059H56.0133V186.776H52.8602C49.9813 186.776 47.5137 189.107 47.5137 192.123C47.5137 192.945 47.6508 193.768 48.0621 194.453C48.0621 194.591 48.1992 194.591 48.1992 194.728C48.3363 195.002 48.4733 195.139 48.6104 195.276C48.6104 195.413 48.7475 195.413 48.8846 195.55C49.0217 195.687 49.0217 195.687 49.1588 195.824C49.2959 195.961 49.2959 195.961 49.433 196.099C49.5701 196.236 49.5701 196.236 49.7072 196.373C49.8443 196.51 49.8443 196.51 49.9813 196.647C50.2555 196.784 50.3926 196.921 50.6668 197.058C50.8039 197.058 50.8039 197.195 50.941 197.195C51.0781 197.195 51.2152 197.332 51.3522 197.332C51.4893 197.332 51.6264 197.469 51.7635 197.469H51.9006C52.0377 197.469 52.0377 197.469 52.1748 197.469C52.3119 197.469 52.3119 197.469 52.449 197.469C52.5861 197.469 52.7232 197.469 52.8602 197.469H56.0133V204.187H52.8602C49.9813 204.187 47.5137 206.518 47.5137 209.534C47.5137 210.356 47.6508 211.179 48.0621 211.864C48.0621 212.001 48.1992 212.001 48.1992 212.138C48.3363 212.413 48.4733 212.687 48.7475 212.824C48.8846 212.961 48.8846 213.098 49.0217 213.098C49.2959 213.372 49.433 213.509 49.7072 213.646C49.8443 213.646 49.8443 213.784 49.9813 213.784C50.2555 213.921 50.3926 214.058 50.6668 214.195C50.8039 214.195 50.8039 214.332 50.941 214.332C51.0781 214.332 51.2152 214.469 51.3522 214.469C51.4893 214.469 51.6264 214.606 51.7635 214.606H51.9006C52.0377 214.606 52.0377 214.606 52.1748 214.606C52.3119 214.606 52.3119 214.606 52.449 214.606C52.5861 214.606 52.7232 214.606 52.8602 214.606H61.0857C61.7711 221.598 70.4078 227.356 82.0605 229.138C82.6089 231.88 84.5282 234.073 87.27 235.033C88.0925 235.307 89.0522 235.444 90.0118 235.444C93.9874 235.444 97.1405 232.702 97.826 229.138C107.422 227.63 115.099 223.38 117.704 217.896C117.841 217.759 117.841 217.622 117.978 217.348C118.115 217.074 118.252 216.8 118.252 216.525C118.252 216.388 118.39 216.251 118.39 216.114C118.39 215.977 118.527 215.84 118.527 215.703C118.664 215.429 118.664 215.154 118.664 214.88C118.664 214.743 118.664 214.606 118.664 214.469H126.889C129.768 214.469 132.236 212.138 132.236 209.122C132.236 208.985 132.236 208.711 132.236 208.574C132.236 208.437 132.236 208.163 132.099 208.026C132.099 207.751 131.962 207.614 131.962 207.34C131.962 207.203 131.824 207.066 131.824 206.929C131.687 206.792 131.687 206.655 131.55 206.381C131.413 206.243 131.413 206.106 131.276 206.106C131.276 205.969 131.139 205.969 131.139 205.832C130.865 205.558 130.728 205.284 130.454 205.147C129.494 204.324 128.397 203.913 127.026 203.913H123.873V197.195H127.026C129.905 197.195 132.373 194.865 132.373 191.849C132.373 191.575 132.373 191.437 132.373 191.3C132.373 191.163 132.373 190.889 132.236 190.752C132.236 190.478 132.099 190.341 132.099 190.066C131.962 189.792 131.824 189.381 131.687 189.107C131.55 188.97 131.55 188.833 131.413 188.696C131.413 188.696 131.413 188.558 131.276 188.558C131.139 188.421 131.002 188.284 131.002 188.147C130.865 188.01 130.728 187.873 130.591 187.736C129.631 186.913 128.534 186.502 127.163 186.502H124.01V179.785H127.163C130.042 179.785 132.51 177.454 132.51 174.438C132.51 174.164 132.51 174.027 132.51 173.89C132.51 173.752 132.51 173.615 132.373 173.341C132.373 173.204 132.236 173.067 132.236 172.793V172.656C132.236 172.519 132.099 172.382 132.099 172.244C131.962 172.107 131.962 171.97 131.824 171.696C131.687 171.559 131.687 171.422 131.55 171.422C131.55 171.285 131.413 171.285 131.413 171.148C131.139 170.874 131.002 170.599 130.728 170.462C129.768 169.64 128.671 169.228 127.3 169.228H124.147C124.147 163.059 125.518 157.027 128.123 151.543C130.728 146.06 134.429 141.124 139.09 137.149C155.13 123.302 165.412 102.876 165.412 79.9811C164.863 66.1348 161.025 52.8368 154.17 41.5952Z" fill="white"/>
<path d="M154.17 41.5952C151.703 37.4824 148.824 33.5067 145.534 29.9423C143.066 27.2005 140.324 24.5957 137.445 22.2651C124.284 11.2977 107.285 4.85437 88.6409 5.12856C48.4734 5.67693 15.5716 38.1679 14.612 78.336C14.0636 102.053 24.3454 123.302 40.9334 137.423C43.5381 139.616 45.8686 142.221 47.925 144.963C51.7635 150.31 54.3682 156.616 55.465 163.196C55.7392 165.253 56.0133 167.309 56.0133 169.503H52.8602C49.9813 169.503 47.5137 171.833 47.5137 174.849C47.5137 175.672 47.6508 176.494 48.0621 177.18C48.0621 177.317 48.1992 177.317 48.1992 177.454C48.3363 177.728 48.4733 178.002 48.7475 178.277C48.8846 178.414 48.8846 178.414 49.0217 178.551C49.2959 178.825 49.433 178.962 49.7072 179.099C49.8443 179.099 49.8443 179.236 49.9813 179.236C50.2555 179.373 50.3926 179.51 50.6668 179.647C50.8039 179.647 50.8039 179.785 50.941 179.785C51.0781 179.785 51.2152 179.922 51.3523 179.922C51.4893 179.922 51.6264 180.059 51.7635 180.059H51.9006C52.0377 180.059 52.0377 180.059 52.1748 180.059C52.3119 180.059 52.3119 180.059 52.449 180.059C52.5861 180.059 52.7232 180.059 52.8602 180.059H56.0133V186.776H52.8602C49.9813 186.776 47.5137 189.107 47.5137 192.123C47.5137 192.945 47.6508 193.768 48.0621 194.453C48.0621 194.591 48.1992 194.591 48.1992 194.728C48.3363 195.002 48.4733 195.139 48.6104 195.276C48.6104 195.413 48.7475 195.413 48.8846 195.55C49.0217 195.687 49.0217 195.687 49.1588 195.824C49.2959 195.961 49.2959 195.961 49.433 196.099C49.5701 196.236 49.5701 196.236 49.7072 196.373C49.8443 196.51 49.8443 196.51 49.9813 196.647C50.2555 196.784 50.3926 196.921 50.6668 197.058C50.8039 197.058 50.8039 197.195 50.941 197.195C51.0781 197.195 51.2152 197.332 51.3523 197.332C51.4893 197.332 51.6264 197.469 51.7635 197.469H51.9006C52.0377 197.469 52.0377 197.469 52.1748 197.469C52.3119 197.469 52.3119 197.469 52.449 197.469C52.5861 197.469 52.7232 197.469 52.8602 197.469H56.0133V204.187H52.8602C49.9813 204.187 47.5137 206.518 47.5137 209.534C47.5137 210.356 47.6508 211.179 48.0621 211.864C48.0621 212.001 48.1992 212.001 48.1992 212.138C48.3363 212.413 48.4733 212.687 48.7475 212.824C48.8846 212.961 48.8846 213.098 49.0217 213.098C49.2959 213.372 49.433 213.509 49.7072 213.646C49.8443 213.646 49.8443 213.784 49.9813 213.784C50.2555 213.921 50.3926 214.058 50.6668 214.195C50.8039 214.195 50.8039 214.332 50.941 214.332C51.0781 214.332 51.2152 214.469 51.3523 214.469C51.4893 214.469 51.6264 214.606 51.7635 214.606H51.9006C52.0377 214.606 52.0377 214.606 52.1748 214.606C52.3119 214.606 52.3119 214.606 52.449 214.606C52.5861 214.606 52.7232 214.606 52.8602 214.606H61.0857C61.7711 221.598 70.4078 227.356 82.0605 229.138C82.6089 231.88 84.5282 234.073 87.27 235.033C88.0925 235.307 89.0522 235.444 90.0118 235.444C93.9874 235.444 97.1405 232.702 97.826 229.138C107.422 227.63 115.099 223.38 117.704 217.896C117.841 217.759 117.841 217.622 117.978 217.348C118.115 217.074 118.252 216.8 118.252 216.525C118.252 216.388 118.39 216.251 118.39 216.114C118.39 215.977 118.527 215.84 118.527 215.703C118.664 215.429 118.664 215.154 118.664 214.88C118.664 214.743 118.664 214.606 118.664 214.469H126.889C129.768 214.469 132.236 212.138 132.236 209.122C132.236 208.985 132.236 208.711 132.236 208.574C132.236 208.437 132.236 208.163 132.099 208.026C132.099 207.751 131.962 207.614 131.962 207.34C131.962 207.203 131.824 207.066 131.824 206.929C131.687 206.792 131.687 206.655 131.55 206.381C131.413 206.243 131.413 206.106 131.276 206.106C131.276 205.969 131.139 205.969 131.139 205.832C130.865 205.558 130.728 205.284 130.454 205.147C129.494 204.324 128.397 203.913 127.026 203.913H123.873V197.195H127.026C129.905 197.195 132.373 194.865 132.373 191.849C132.373 191.575 132.373 191.437 132.373 191.3C132.373 191.163 132.373 190.889 132.236 190.752C132.236 190.478 132.099 190.341 132.099 190.066C131.962 189.792 131.824 189.381 131.687 189.107C131.55 188.97 131.55 188.833 131.413 188.696C131.413 188.696 131.413 188.558 131.276 188.558C131.139 188.421 131.002 188.284 131.002 188.147C130.865 188.01 130.728 187.873 130.591 187.736C129.631 186.913 128.534 186.502 127.163 186.502H124.01V179.785H127.163C130.042 179.785 132.51 177.454 132.51 174.438C132.51 174.164 132.51 174.027 132.51 173.89C132.51 173.752 132.51 173.615 132.373 173.341C132.373 173.204 132.236 173.067 132.236 172.793V172.656C132.236 172.519 132.099 172.382 132.099 172.244C131.962 172.107 131.962 171.97 131.824 171.696C131.687 171.559 131.687 171.422 131.55 171.422C131.55 171.285 131.413 171.285 131.413 171.148C131.139 170.874 131.002 170.599 130.728 170.462C129.768 169.64 128.671 169.228 127.3 169.228H124.147C124.147 163.059 125.518 157.027 128.123 151.543C130.728 146.06 134.429 141.124 139.09 137.149C155.13 123.302 165.412 102.876 165.412 79.9811C164.863 66.1348 161.025 52.8368 154.17 41.5952Z" stroke="white" stroke-width="10" stroke-miterlimit="10"/>
<path d="M164.863 80.2553C164.863 103.15 154.719 123.577 138.542 137.423C133.881 141.399 130.042 146.334 127.575 151.818C124.97 157.301 123.599 163.333 123.599 169.503H55.8762C55.8762 167.309 55.7391 165.253 55.3278 163.196C54.3682 156.616 51.7635 150.31 47.7878 144.963C45.7315 142.221 43.4009 139.616 40.7962 137.423C24.3453 123.302 14.0635 102.053 14.6119 78.336C15.7086 38.1679 48.4733 5.67693 88.6408 5.12856C107.285 4.85437 124.284 11.2977 137.445 22.2651C140.324 24.5957 143.066 27.2005 145.533 29.9423C148.824 33.5067 151.703 37.4824 154.17 41.5952C161.025 52.8368 164.863 66.1348 164.863 80.2553Z" fill="#0098A3"/>
<path d="M123.599 169.503H55.8762V214.058H123.599V169.503Z" fill="#203E46"/>
<path d="M118.664 214.606C118.664 214.743 118.664 214.88 118.664 215.017C118.664 215.154 118.664 215.292 118.664 215.429C118.664 215.703 118.527 215.977 118.527 216.251C118.527 216.388 118.527 216.525 118.39 216.662C118.39 216.8 118.252 216.937 118.252 217.074C118.115 217.348 118.115 217.622 117.978 217.896C117.841 218.033 117.841 218.17 117.704 218.445C114.962 223.791 107.422 228.041 97.8259 229.686C97.1405 233.251 93.8503 235.993 90.0118 235.993C89.0521 235.993 88.0925 235.855 87.2699 235.581C84.6652 234.622 82.6089 232.428 82.0605 229.686C70.5449 227.904 61.9082 222.146 61.0856 215.154V215.017C61.0856 214.88 61.0856 214.743 61.0856 214.743H118.664V214.606Z" fill="#203E46"/>
<path d="M132.099 209.671C132.099 212.55 129.768 215.017 126.752 215.017H52.7231C52.586 215.017 52.4489 215.017 52.3119 215.017C52.1748 215.017 52.1748 215.017 52.0377 215.017C51.9006 215.017 51.9006 215.017 51.7635 215.017H51.6264C51.4893 215.017 51.3522 214.88 51.2151 214.88C51.078 214.88 50.9409 214.743 50.8039 214.743C50.6668 214.743 50.6668 214.606 50.5297 214.606C50.2555 214.469 50.1184 214.332 49.8442 214.195C49.7071 214.195 49.7071 214.058 49.57 214.058C49.2959 213.921 49.0217 213.646 48.8846 213.509C48.7475 213.372 48.7475 213.235 48.6104 213.235C48.4733 212.961 48.1991 212.824 48.062 212.55C48.062 212.413 47.925 212.413 47.925 212.275C47.5137 211.59 47.3766 210.767 47.3766 209.945C47.3766 207.066 49.7071 204.598 52.7231 204.598H126.889C128.123 204.598 129.357 205.01 130.316 205.832C130.591 206.106 130.865 206.243 131.002 206.518C131.139 206.655 131.139 206.655 131.139 206.792C131.276 206.929 131.276 206.929 131.413 207.066C131.55 207.203 131.55 207.34 131.687 207.614C131.824 207.751 131.824 207.889 131.824 208.026C131.962 208.3 131.962 208.437 131.962 208.711C131.962 208.848 131.962 208.985 132.099 209.259C132.099 209.259 132.099 209.534 132.099 209.671Z" fill="#203E46"/>
<path d="M132.099 209.671C132.099 212.55 129.768 215.017 126.752 215.017H52.7231C52.586 215.017 52.4489 215.017 52.3118 215.017C52.1747 215.017 52.1747 215.017 52.0376 215.017C51.9006 215.017 51.9006 215.017 51.7635 215.017H51.6264C51.4893 215.017 51.3522 214.88 51.2151 214.88C51.078 214.88 50.9409 214.743 50.8038 214.743C50.6667 214.743 50.6667 214.606 50.5296 214.606C50.2555 214.469 50.1184 214.332 49.8442 214.195C49.7071 214.195 49.7071 214.058 49.57 214.058C49.2958 213.921 49.0217 213.646 48.8846 213.509C48.7475 213.372 48.7475 213.235 48.6104 213.235C48.4733 212.961 48.1991 212.824 48.062 212.55C48.062 212.413 47.9249 212.413 47.9249 212.275C48.8846 213.098 49.9813 213.509 51.3522 213.509H125.518C128.397 213.509 130.865 211.179 130.865 208.163C130.865 207.34 130.591 206.518 130.316 205.832C130.591 206.106 130.865 206.243 131.002 206.518C131.139 206.655 131.139 206.655 131.139 206.792C131.276 206.929 131.276 206.929 131.413 207.066C131.55 207.203 131.55 207.34 131.687 207.614C131.824 207.751 131.824 207.889 131.824 208.026C131.961 208.3 131.961 208.437 131.961 208.711C131.961 208.848 131.961 208.985 132.099 209.259C132.099 209.259 132.099 209.534 132.099 209.671Z" fill="#162B30"/>
<path d="M132.099 174.849C132.099 177.728 129.768 180.196 126.752 180.196H52.7231C52.586 180.196 52.4489 180.196 52.3119 180.196C52.1748 180.196 52.1748 180.196 52.0377 180.196C51.9006 180.196 51.9006 180.196 51.7635 180.196H51.6264C51.4893 180.196 51.3522 180.059 51.2151 180.059C51.078 180.059 50.9409 179.922 50.8039 179.922C50.6668 179.922 50.6668 179.785 50.5297 179.785C50.2555 179.647 50.1184 179.51 49.8442 179.373C49.7071 179.373 49.7071 179.236 49.57 179.236C49.2959 179.099 49.0217 178.825 48.8846 178.688C48.7475 178.551 48.7475 178.551 48.6104 178.414C48.3362 178.139 48.1991 177.865 48.062 177.591C48.062 177.454 47.925 177.454 47.925 177.317C47.5137 176.631 47.3766 175.809 47.3766 174.986C47.3766 172.107 49.7071 169.64 52.7231 169.64H126.889C128.123 169.64 129.357 170.051 130.316 170.874C130.591 171.148 130.865 171.285 131.002 171.559C131.139 171.696 131.139 171.696 131.139 171.833C131.276 171.97 131.276 171.97 131.413 172.107C131.55 172.244 131.55 172.382 131.687 172.656C131.824 172.793 131.824 172.93 131.824 173.067V173.204C131.824 173.341 131.962 173.478 131.962 173.752C131.962 173.89 131.962 174.027 132.099 174.301C132.099 174.438 132.099 174.712 132.099 174.849Z" fill="#203E46"/>
<path d="M132.099 174.849C132.099 177.728 129.768 180.196 126.752 180.196H52.7231C52.586 180.196 52.4489 180.196 52.3118 180.196C52.1747 180.196 52.1747 180.196 52.0376 180.196C51.9006 180.196 51.9006 180.196 51.7635 180.196H51.6264C51.4893 180.196 51.3522 180.059 51.2151 180.059C51.078 180.059 50.9409 179.922 50.8038 179.922C50.6667 179.922 50.6667 179.785 50.5296 179.785C50.2555 179.647 50.1184 179.51 49.8442 179.373C49.7071 179.373 49.7071 179.236 49.57 179.236C49.2958 179.099 49.0217 178.825 48.8846 178.688C48.7475 178.551 48.7475 178.551 48.6104 178.414C48.3362 178.139 48.1991 177.865 48.062 177.591C48.062 177.454 47.9249 177.454 47.9249 177.317C48.8846 178.139 49.9813 178.551 51.3522 178.551H125.518C128.397 178.551 130.865 176.22 130.865 173.204C130.865 172.382 130.591 171.559 130.316 170.874C130.591 171.148 130.865 171.285 131.002 171.559C131.139 171.696 131.139 171.696 131.139 171.833C131.276 171.97 131.276 171.97 131.413 172.107C131.55 172.244 131.55 172.382 131.687 172.656C131.824 172.793 131.824 172.93 131.824 173.067V173.204C131.824 173.341 131.961 173.478 131.961 173.752C131.961 173.89 131.961 174.027 132.099 174.301C132.099 174.438 132.099 174.712 132.099 174.849Z" fill="#162B30"/>
<path d="M132.099 192.26C132.099 195.139 129.768 197.607 126.752 197.607H52.7231C52.586 197.607 52.4489 197.607 52.3119 197.607C52.1748 197.607 52.1748 197.607 52.0377 197.607C51.9006 197.607 51.9006 197.607 51.7635 197.607H51.6264C51.4893 197.607 51.3522 197.469 51.2151 197.469C51.078 197.469 50.9409 197.332 50.8039 197.332C50.6668 197.332 50.6668 197.195 50.5297 197.195C50.2555 197.058 50.1184 196.921 49.8442 196.784C49.7071 196.784 49.7071 196.647 49.57 196.51C49.4329 196.51 49.4329 196.373 49.2959 196.236C49.1588 196.099 49.1588 196.099 49.0217 195.961C48.8846 195.824 48.8846 195.824 48.7475 195.687C48.6104 195.55 48.6104 195.55 48.4733 195.413C48.3362 195.276 48.1991 195.002 48.062 194.865C48.062 194.728 47.925 194.728 47.925 194.591C47.5137 193.905 47.3766 193.083 47.3766 192.26C47.3766 189.381 49.7071 186.913 52.7231 186.913H126.889C128.123 186.913 129.357 187.325 130.316 188.147C130.454 188.284 130.591 188.421 130.728 188.558C130.865 188.696 131.002 188.833 131.002 188.97C131.002 188.97 131.002 189.107 131.139 189.107C131.276 189.244 131.276 189.381 131.413 189.518C131.55 189.792 131.824 190.204 131.824 190.478C131.962 190.752 131.962 190.889 131.962 191.163C131.962 191.3 132.099 191.575 132.099 191.712C132.099 191.849 132.099 192.123 132.099 192.26Z" fill="#203E46"/>
<path d="M132.099 192.26C132.099 195.139 129.768 197.607 126.752 197.607H52.7231C52.586 197.607 52.4489 197.607 52.3118 197.607C52.1747 197.607 52.1747 197.607 52.0376 197.607C51.9006 197.607 51.9006 197.607 51.7635 197.607H51.6264C51.4893 197.607 51.3522 197.469 51.2151 197.469C51.078 197.469 50.9409 197.332 50.8038 197.332C50.6667 197.332 50.6667 197.195 50.5296 197.195C50.2555 197.058 50.1184 196.921 49.8442 196.784C49.7071 196.784 49.7071 196.647 49.57 196.51C49.4329 196.51 49.4329 196.373 49.2958 196.236C49.1587 196.099 49.1587 196.099 49.0217 195.961C48.8846 195.824 48.8846 195.824 48.7475 195.687C48.6104 195.55 48.6104 195.55 48.4733 195.413C48.3362 195.276 48.1991 195.002 48.062 194.865C48.062 194.728 47.9249 194.728 47.9249 194.591C48.8846 195.413 49.9813 195.824 51.3522 195.824H125.518C128.397 195.824 130.865 193.494 130.865 190.478C130.865 189.655 130.591 188.833 130.316 188.147C130.453 188.284 130.591 188.421 130.728 188.558C130.865 188.696 131.002 188.833 131.002 188.97C131.002 188.97 131.002 189.107 131.139 189.107C131.276 189.244 131.276 189.381 131.413 189.518C131.55 189.792 131.687 190.204 131.824 190.478C131.961 190.752 131.961 190.889 131.961 191.163C131.961 191.3 132.099 191.575 132.099 191.712C132.099 191.849 132.099 192.123 132.099 192.26Z" fill="#162B30"/>
<path d="M89.1892 138.383C88.9151 132.488 86.4474 126.867 83.4314 121.931C80.4154 116.859 76.714 112.198 72.0529 108.633C67.3918 105.069 61.634 102.876 55.7391 103.15C54.7795 103.15 53.8199 103.287 53.1344 103.835C51.3522 105.206 51.9006 107.948 52.9973 109.867C55.8762 115.077 61.0857 118.778 66.4322 121.52C71.7787 124.399 77.3994 126.593 82.1976 130.294C85.3507 132.625 88.0925 135.641 90.1489 138.931" fill="#5BC9A2"/>
<path d="M90.5602 138.383C90.8343 132.488 93.302 126.867 96.318 121.931C99.334 116.859 103.035 112.198 107.696 108.633C112.358 105.069 118.115 102.876 124.01 103.15C124.97 103.15 125.93 103.287 126.615 103.835C128.397 105.206 127.849 107.948 126.752 109.867C123.873 115.077 118.664 118.778 113.317 121.52C107.971 124.399 102.35 126.593 97.5518 130.294C94.3987 132.625 91.6569 135.641 89.6005 138.931" fill="#5BC9A2"/>
<path d="M87.5442 84.3681C81.7864 74.6345 77.9478 60.3769 84.1169 49.9578C85.8991 46.8047 89.4635 44.6112 93.0278 45.1596C95.6325 45.5709 97.826 47.4902 99.0598 49.6837C100.294 52.0142 100.842 54.619 100.979 57.2238C101.253 61.8849 100.705 67.2315 98.5114 71.3443C96.1809 75.7312 94.6729 80.2553 91.6569 84.231" fill="#5BC9A2"/>
<path d="M92.4794 84.7794C94.2616 73.5378 100.294 60.1027 111.672 56.127C115.099 54.8932 119.349 55.4415 121.68 58.1834C123.462 60.1027 123.873 62.9816 123.462 65.5864C123.051 68.1912 121.68 70.5217 120.172 72.7152C117.43 76.5538 113.591 80.2553 109.204 82.0375C104.681 83.8197 100.568 86.4245 95.7696 87.5212" fill="#5BC9A2"/>
<path d="M96.0438 88.0696C104.543 80.6666 117.841 74.0861 129.22 78.1989C132.647 79.4327 135.526 82.4488 135.663 86.1503C135.8 88.755 134.292 91.2227 132.373 93.0049C130.316 94.65 127.849 95.7468 125.381 96.2951C120.857 97.529 115.511 97.9402 110.987 96.5693C106.326 95.0613 101.527 94.5129 97.0035 92.1824" fill="#5BC9A2"/>
<path d="M82.4718 92.4565C72.0529 96.9806 57.5213 99.037 47.925 91.634C45.0461 89.4405 43.2639 85.6019 44.2235 82.1746C44.909 79.7069 47.1024 77.6505 49.433 76.6909C51.9006 75.7313 54.5053 75.4571 57.1101 75.7313C61.7711 76.0054 66.9806 77.2393 70.8191 79.9811C74.7947 82.8601 79.1816 84.9165 82.746 88.3438" fill="#5BC9A2"/>
<path d="M83.2944 87.6583C72.4642 84.5052 59.8519 76.828 57.2471 65.038C56.4246 61.4736 57.5213 57.3608 60.4002 55.4415C62.5937 53.9335 65.4726 53.7964 67.9402 54.619C70.4078 55.4415 72.6013 56.9496 74.5206 58.7318C77.9478 61.8849 81.238 66.1348 82.4718 70.7959C83.7056 75.5942 85.762 79.844 86.3104 84.9164" fill="#5BC9A2"/>
<path d="M89.0522 88.4809C89.0522 116.174 89.0522 144.003 89.0522 171.696C89.0522 174.712 90.5602 174.712 90.5602 171.696C90.5602 144.003 90.5602 116.174 90.5602 88.4809C90.5602 85.4648 89.0522 85.4648 89.0522 88.4809Z" fill="#203E46"/>
<path d="M90.4231 137.834C90.5602 137.697 89.7376 135.778 87.9555 132.899C86.1733 130.02 83.2944 126.318 79.4558 122.754C75.7544 119.19 71.7788 116.448 68.8999 114.803C66.021 113.158 63.9646 112.335 63.9646 112.472C63.6904 112.883 71.0933 116.722 78.4962 123.851C85.8991 130.98 90.0118 138.108 90.4231 137.834Z" fill="#203E46"/>
<path d="M89.3263 137.834C89.7376 138.108 93.9874 130.842 101.39 123.851C108.656 116.722 116.196 112.883 115.922 112.472C115.785 112.335 113.866 113.02 110.987 114.803C108.108 116.448 104.132 119.19 100.431 122.754C96.7292 126.318 93.8503 130.157 91.9311 132.899C90.0118 135.915 89.1893 137.834 89.3263 137.834Z" fill="#203E46"/>
<path d="M84.5282 90.6743C84.6653 90.2631 78.7704 87.9325 71.3675 86.0132C63.9646 84.0939 57.6584 83.1342 57.6584 83.5455C57.5213 83.9568 63.5533 85.6019 70.9562 87.6583C78.222 89.5776 84.3911 91.0856 84.5282 90.6743Z" fill="white"/>
<path d="M85.6249 83.9568C85.8991 83.5455 81.9234 79.0215 76.714 73.812C71.5045 68.6024 66.8435 64.4897 66.5693 64.9009C66.2951 65.3122 70.2707 69.8363 75.4802 75.0458C80.8267 80.2553 85.3507 84.231 85.6249 83.9568Z" fill="white"/>
<path d="M90.8344 82.1746C91.2456 82.1746 91.5198 75.8683 91.2456 67.917C90.9715 60.1027 90.4231 53.7964 90.0118 53.7964C89.6005 53.7964 89.3264 60.1027 89.6005 68.0541C89.8747 75.8683 90.4231 82.1746 90.8344 82.1746Z" fill="white"/>
<path d="M113.454 65.1751C113.043 64.9009 108.656 69.2879 103.447 75.1829C98.2372 80.9408 94.3987 86.0132 94.6729 86.2874C95.0841 86.5616 99.471 82.1746 104.68 76.2796C109.89 70.5217 113.866 65.5864 113.454 65.1751Z" fill="white"/>
<path d="M126.341 83.1343C126.204 82.723 119.898 83.5455 112.083 84.9165C104.269 86.4245 97.9631 87.9325 98.1002 88.4809C98.2372 88.8921 104.543 88.0696 112.358 86.6987C120.172 85.1906 126.478 83.6826 126.341 83.1343Z" fill="white"/>
<path d="M104.68 95.4726C104.543 93.4162 104.132 91.4969 103.721 89.4405C102.213 83.4084 96.1809 79.844 90.1489 79.7069C90.0118 79.7069 89.8747 79.7069 89.7376 79.7069C89.6005 79.7069 89.4634 79.7069 89.3263 79.7069C83.2944 79.7069 77.2624 83.2713 75.7544 89.4405C75.206 91.3598 74.9318 93.4162 74.7947 95.4726C79.73 95.7468 84.6653 95.7468 89.6005 95.7468C94.81 95.7468 99.7452 95.7468 104.68 95.4726Z" fill="white"/>
</svg>
