<svg width="154" height="45" viewBox="0 0 154 45" fill="none" xmlns="http://www.w3.org/2000/svg">
<rect x="1" y="0.5" width="152" height="44" rx="4" fill="#EBE9FF"/>
<rect x="1" y="0.5" width="152" height="44" rx="4" stroke="url(#paint0_linear_791_390)"/>
<g clip-path="url(#clip0_791_390)">
<path d="M11 30.76H29V12.76H11V30.76Z" fill="#323338"/>
<path d="M36.1066 27.5V17.3182H40.1237C40.8926 17.3182 41.5489 17.4557 42.0924 17.7308C42.6393 18.0026 43.0552 18.3887 43.3403 18.8892C43.6286 19.3864 43.7728 19.9714 43.7728 20.6442C43.7728 21.3203 43.627 21.902 43.3353 22.3892C43.0436 22.8731 42.6211 23.2443 42.0676 23.5028C41.5174 23.7614 40.8512 23.8906 40.069 23.8906H37.3794V22.1605H39.721C40.132 22.1605 40.4733 22.1042 40.7451 21.9915C41.0169 21.8788 41.2191 21.7098 41.3517 21.4844C41.4875 21.259 41.5555 20.9789 41.5555 20.6442C41.5555 20.3061 41.4875 20.0211 41.3517 19.7891C41.2191 19.5571 41.0152 19.3814 40.7401 19.2621C40.4684 19.1394 40.1253 19.0781 39.711 19.0781H38.2593V27.5H36.1066ZM41.6052 22.8665L44.1357 27.5H41.7593L39.2835 22.8665H41.6052ZM48.6114 27.6491C47.8259 27.6491 47.1498 27.4901 46.583 27.1719C46.0196 26.8504 45.5854 26.3963 45.2805 25.8097C44.9755 25.2197 44.8231 24.522 44.8231 23.7166C44.8231 22.9311 44.9755 22.2417 45.2805 21.6484C45.5854 21.0552 46.0146 20.5928 46.5681 20.2614C47.1249 19.9299 47.7778 19.7642 48.5269 19.7642C49.0307 19.7642 49.4997 19.8454 49.9339 20.0078C50.3714 20.1669 50.7525 20.4072 51.0773 20.7287C51.4055 21.0502 51.6607 21.4545 51.843 21.9418C52.0252 22.4257 52.1164 22.9924 52.1164 23.642V24.2237H45.6682V22.9112H50.1228C50.1228 22.6063 50.0565 22.3362 49.9239 22.1009C49.7913 21.8655 49.6074 21.6816 49.3721 21.549C49.1401 21.4131 48.8699 21.3452 48.5617 21.3452C48.2402 21.3452 47.9552 21.4197 47.7066 21.5689C47.4613 21.7147 47.2691 21.9119 47.1299 22.1605C46.9907 22.4058 46.9194 22.6792 46.9161 22.9808V24.2287C46.9161 24.6065 46.9857 24.933 47.1249 25.2081C47.2674 25.4832 47.468 25.6953 47.7265 25.8445C47.985 25.9936 48.2916 26.0682 48.6462 26.0682C48.8815 26.0682 49.097 26.035 49.2925 25.9688C49.4881 25.9025 49.6555 25.803 49.7947 25.6705C49.9339 25.5379 50.0399 25.3755 50.1128 25.1832L52.0716 25.3125C51.9722 25.7831 51.7684 26.1941 51.4601 26.5455C51.1552 26.8935 50.7608 27.1652 50.2769 27.3608C49.7963 27.553 49.2412 27.6491 48.6114 27.6491ZM56.9488 27.6491C56.1666 27.6491 55.4938 27.4834 54.9303 27.152C54.3702 26.8172 53.9393 26.3532 53.6377 25.7599C53.3394 25.1667 53.1903 24.4839 53.1903 23.7116C53.1903 22.9295 53.3411 22.2434 53.6427 21.6534C53.9476 21.0601 54.3801 20.5978 54.9403 20.2663C55.5004 19.9316 56.1666 19.7642 56.9388 19.7642C57.605 19.7642 58.1884 19.8852 58.6888 20.1271C59.1893 20.3691 59.5854 20.7088 59.877 21.1463C60.1687 21.5838 60.3295 22.0975 60.3593 22.6875H58.3607C58.3044 22.3063 58.1552 21.9998 57.9133 21.7678C57.6746 21.5324 57.3614 21.4148 56.9736 21.4148C56.6455 21.4148 56.3588 21.5043 56.1135 21.6832C55.8716 21.8589 55.6827 22.1158 55.5468 22.4538C55.4109 22.7919 55.343 23.2012 55.343 23.6818C55.343 24.169 55.4092 24.5833 55.5418 24.9247C55.6777 25.2661 55.8683 25.5263 56.1135 25.7053C56.3588 25.8842 56.6455 25.9737 56.9736 25.9737C57.2156 25.9737 57.4327 25.924 57.6249 25.8246C57.8205 25.7251 57.9812 25.581 58.1072 25.392C58.2364 25.1998 58.3209 24.9695 58.3607 24.701H60.3593C60.3261 25.2843 60.1671 25.7981 59.882 26.2422C59.6003 26.683 59.2108 27.0277 58.7137 27.2763C58.2165 27.5249 57.6282 27.6491 56.9488 27.6491ZM65.1656 27.6491C64.3933 27.6491 63.7255 27.4851 63.162 27.157C62.6019 26.8255 62.1694 26.3648 61.8644 25.7749C61.5595 25.1816 61.407 24.4938 61.407 23.7116C61.407 22.9228 61.5595 22.2334 61.8644 21.6435C62.1694 21.0502 62.6019 20.5895 63.162 20.2614C63.7255 19.9299 64.3933 19.7642 65.1656 19.7642C65.9378 19.7642 66.604 19.9299 67.1642 20.2614C67.7276 20.5895 68.1618 21.0502 68.4667 21.6435C68.7716 22.2334 68.9241 22.9228 68.9241 23.7116C68.9241 24.4938 68.7716 25.1816 68.4667 25.7749C68.1618 26.3648 67.7276 26.8255 67.1642 27.157C66.604 27.4851 65.9378 27.6491 65.1656 27.6491ZM65.1755 26.0085C65.5268 26.0085 65.8202 25.9091 66.0555 25.7102C66.2908 25.508 66.4681 25.233 66.5874 24.8849C66.7101 24.5369 66.7714 24.1409 66.7714 23.6967C66.7714 23.2526 66.7101 22.8565 66.5874 22.5085C66.4681 22.1605 66.2908 21.8854 66.0555 21.6832C65.8202 21.4811 65.5268 21.38 65.1755 21.38C64.8209 21.38 64.5226 21.4811 64.2806 21.6832C64.042 21.8854 63.8614 22.1605 63.7387 22.5085C63.6194 22.8565 63.5597 23.2526 63.5597 23.6967C63.5597 24.1409 63.6194 24.5369 63.7387 24.8849C63.8614 25.233 64.042 25.508 64.2806 25.7102C64.5226 25.9091 64.8209 26.0085 65.1755 26.0085ZM70.3012 27.5V19.8636H72.3197V21.2109H72.4092C72.5683 20.7635 72.8334 20.4105 73.2046 20.152C73.5758 19.8935 74.02 19.7642 74.537 19.7642C75.0607 19.7642 75.5065 19.8951 75.8744 20.157C76.2423 20.4155 76.4875 20.7668 76.6102 21.2109H76.6897C76.8455 20.7734 77.1272 20.4238 77.5349 20.1619C77.9459 19.8968 78.4314 19.7642 78.9916 19.7642C79.7042 19.7642 80.2825 19.9912 80.7267 20.4453C81.1741 20.8961 81.3978 21.5357 81.3978 22.3643V27.5H79.2849V22.782C79.2849 22.3577 79.1722 22.0395 78.9468 21.8274C78.7214 21.6153 78.4397 21.5092 78.1017 21.5092C77.7172 21.5092 77.4172 21.6319 77.2018 21.8771C76.9864 22.1191 76.8786 22.4389 76.8786 22.8366V27.5H74.8254V22.7372C74.8254 22.3627 74.7177 22.0644 74.5022 21.8423C74.2901 21.6203 74.01 21.5092 73.662 21.5092C73.4267 21.5092 73.2146 21.5689 73.0257 21.6882C72.8401 21.8042 72.6926 21.9683 72.5832 22.1804C72.4738 22.3892 72.4191 22.6345 72.4191 22.9162V27.5H70.3012ZM83.0708 27.5V19.8636H85.0892V21.2109H85.1787C85.3378 20.7635 85.603 20.4105 85.9742 20.152C86.3454 19.8935 86.7895 19.7642 87.3066 19.7642C87.8302 19.7642 88.276 19.8951 88.6439 20.157C89.0118 20.4155 89.2571 20.7668 89.3797 21.2109H89.4593C89.615 20.7734 89.8968 20.4238 90.3044 20.1619C90.7154 19.8968 91.201 19.7642 91.7611 19.7642C92.4737 19.7642 93.0521 19.9912 93.4962 20.4453C93.9436 20.8961 94.1673 21.5357 94.1673 22.3643V27.5H92.0544V22.782C92.0544 22.3577 91.9417 22.0395 91.7164 21.8274C91.491 21.6153 91.2093 21.5092 90.8712 21.5092C90.4867 21.5092 90.1868 21.6319 89.9713 21.8771C89.7559 22.1191 89.6482 22.4389 89.6482 22.8366V27.5H87.5949V22.7372C87.5949 22.3627 87.4872 22.0644 87.2718 21.8423C87.0596 21.6203 86.7796 21.5092 86.4316 21.5092C86.1962 21.5092 85.9841 21.5689 85.7952 21.6882C85.6096 21.8042 85.4621 21.9683 85.3527 22.1804C85.2433 22.3892 85.1887 22.6345 85.1887 22.9162V27.5H83.0708ZM99.3204 27.6491C98.5349 27.6491 97.8588 27.4901 97.292 27.1719C96.7285 26.8504 96.2944 26.3963 95.9894 25.8097C95.6845 25.2197 95.532 24.522 95.532 23.7166C95.532 22.9311 95.6845 22.2417 95.9894 21.6484C96.2944 21.0552 96.7236 20.5928 97.2771 20.2614C97.8339 19.9299 98.4868 19.7642 99.2359 19.7642C99.7397 19.7642 100.209 19.8454 100.643 20.0078C101.08 20.1669 101.461 20.4072 101.786 20.7287C102.114 21.0502 102.37 21.4545 102.552 21.9418C102.734 22.4257 102.825 22.9924 102.825 23.642V24.2237H96.3772V22.9112H100.832C100.832 22.6063 100.765 22.3362 100.633 22.1009C100.5 21.8655 100.316 21.6816 100.081 21.549C99.849 21.4131 99.5789 21.3452 99.2707 21.3452C98.9492 21.3452 98.6642 21.4197 98.4156 21.5689C98.1703 21.7147 97.9781 21.9119 97.8389 22.1605C97.6997 22.4058 97.6284 22.6792 97.6251 22.9808V24.2287C97.6251 24.6065 97.6947 24.933 97.8339 25.2081C97.9764 25.4832 98.1769 25.6953 98.4355 25.8445C98.694 25.9936 99.0006 26.0682 99.3552 26.0682C99.5905 26.0682 99.806 26.035 100.002 25.9688C100.197 25.9025 100.364 25.803 100.504 25.6705C100.643 25.5379 100.749 25.3755 100.822 25.1832L102.781 25.3125C102.681 25.7831 102.477 26.1941 102.169 26.5455C101.864 26.8935 101.47 27.1652 100.986 27.3608C100.505 27.553 99.9501 27.6491 99.3204 27.6491ZM106.325 23.0852V27.5H104.207V19.8636H106.226V21.2109H106.315C106.484 20.7668 106.768 20.4155 107.166 20.157C107.563 19.8951 108.046 19.7642 108.612 19.7642C109.143 19.7642 109.605 19.8802 109.999 20.1122C110.394 20.3442 110.7 20.6757 110.919 21.1065C111.138 21.5341 111.247 22.0445 111.247 22.6378V27.5H109.129V23.0156C109.133 22.5483 109.013 22.1837 108.771 21.9219C108.529 21.6567 108.196 21.5241 107.772 21.5241C107.487 21.5241 107.235 21.5855 107.016 21.7081C106.801 21.8307 106.632 22.0097 106.509 22.245C106.39 22.477 106.329 22.7571 106.325 23.0852ZM115.73 27.6243C115.15 27.6243 114.625 27.4751 114.154 27.1768C113.687 26.8752 113.316 26.4328 113.041 25.8494C112.769 25.2628 112.633 24.5436 112.633 23.6918C112.633 22.8168 112.774 22.0893 113.056 21.5092C113.337 20.9259 113.712 20.4901 114.179 20.2017C114.65 19.91 115.165 19.7642 115.725 19.7642C116.153 19.7642 116.509 19.8371 116.794 19.983C117.083 20.1255 117.315 20.3045 117.49 20.5199C117.669 20.732 117.805 20.9408 117.898 21.1463H117.963V17.3182H120.076V27.5H117.987V26.277H117.898C117.799 26.4891 117.658 26.6996 117.475 26.9084C117.296 27.1139 117.063 27.2846 116.774 27.4205C116.489 27.5563 116.141 27.6243 115.73 27.6243ZM116.402 25.9389C116.743 25.9389 117.031 25.8461 117.267 25.6605C117.505 25.4716 117.688 25.2081 117.813 24.87C117.943 24.532 118.007 24.1359 118.007 23.6818C118.007 23.2277 117.944 22.8333 117.818 22.4986C117.693 22.1638 117.51 21.9053 117.272 21.723C117.033 21.5407 116.743 21.4496 116.402 21.4496C116.054 21.4496 115.76 21.544 115.522 21.733C115.283 21.9219 115.102 22.1837 114.98 22.5185C114.857 22.8532 114.796 23.241 114.796 23.6818C114.796 24.1259 114.857 24.5187 114.98 24.8601C115.106 25.1982 115.286 25.4633 115.522 25.6555C115.76 25.8445 116.054 25.9389 116.402 25.9389ZM125.297 27.6491C124.511 27.6491 123.835 27.4901 123.269 27.1719C122.705 26.8504 122.271 26.3963 121.966 25.8097C121.661 25.2197 121.509 24.522 121.509 23.7166C121.509 22.9311 121.661 22.2417 121.966 21.6484C122.271 21.0552 122.7 20.5928 123.254 20.2614C123.81 19.9299 124.463 19.7642 125.212 19.7642C125.716 19.7642 126.185 19.8454 126.619 20.0078C127.057 20.1669 127.438 20.4072 127.763 20.7287C128.091 21.0502 128.346 21.4545 128.528 21.9418C128.711 22.4257 128.802 22.9924 128.802 23.642V24.2237H122.354V22.9112H126.808C126.808 22.6063 126.742 22.3362 126.609 22.1009C126.477 21.8655 126.293 21.6816 126.058 21.549C125.826 21.4131 125.555 21.3452 125.247 21.3452C124.926 21.3452 124.641 21.4197 124.392 21.5689C124.147 21.7147 123.955 21.9119 123.815 22.1605C123.676 22.4058 123.605 22.6792 123.602 22.9808V24.2287C123.602 24.6065 123.671 24.933 123.81 25.2081C123.953 25.4832 124.153 25.6953 124.412 25.8445C124.671 25.9936 124.977 26.0682 125.332 26.0682C125.567 26.0682 125.783 26.035 125.978 25.9688C126.174 25.9025 126.341 25.803 126.48 25.6705C126.619 25.5379 126.725 25.3755 126.798 25.1832L128.757 25.3125C128.658 25.7831 128.454 26.1941 128.146 26.5455C127.841 26.8935 127.446 27.1652 126.962 27.3608C126.482 27.553 125.927 27.6491 125.297 27.6491ZM132.998 27.6243C132.418 27.6243 131.893 27.4751 131.422 27.1768C130.955 26.8752 130.583 26.4328 130.308 25.8494C130.037 25.2628 129.901 24.5436 129.901 23.6918C129.901 22.8168 130.042 22.0893 130.323 21.5092C130.605 20.9259 130.979 20.4901 131.447 20.2017C131.917 19.91 132.433 19.7642 132.993 19.7642C133.421 19.7642 133.777 19.8371 134.062 19.983C134.35 20.1255 134.582 20.3045 134.758 20.5199C134.937 20.732 135.073 20.9408 135.166 21.1463H135.23V17.3182H137.343V27.5H135.255V26.277H135.166C135.066 26.4891 134.925 26.6996 134.743 26.9084C134.564 27.1139 134.33 27.2846 134.042 27.4205C133.757 27.5563 133.409 27.6243 132.998 27.6243ZM133.669 25.9389C134.011 25.9389 134.299 25.8461 134.534 25.6605C134.773 25.4716 134.955 25.2081 135.081 24.87C135.21 24.532 135.275 24.1359 135.275 23.6818C135.275 23.2277 135.212 22.8333 135.086 22.4986C134.96 22.1638 134.778 21.9053 134.539 21.723C134.301 21.5407 134.011 21.4496 133.669 21.4496C133.321 21.4496 133.028 21.544 132.789 21.733C132.551 21.9219 132.37 22.1837 132.247 22.5185C132.125 22.8532 132.063 23.241 132.063 23.6818C132.063 24.1259 132.125 24.5187 132.247 24.8601C132.373 25.1982 132.554 25.4633 132.789 25.6555C133.028 25.8445 133.321 25.9389 133.669 25.9389ZM141.615 17.3182L141.421 24.4474H139.601L139.403 17.3182H141.615ZM140.511 27.6293C140.183 27.6293 139.901 27.5133 139.666 27.2812C139.431 27.0459 139.315 26.7642 139.318 26.4361C139.315 26.1113 139.431 25.8329 139.666 25.6009C139.901 25.3688 140.183 25.2528 140.511 25.2528C140.826 25.2528 141.103 25.3688 141.342 25.6009C141.58 25.8329 141.701 26.1113 141.704 26.4361C141.701 26.6548 141.643 26.8554 141.53 27.0376C141.421 27.2166 141.277 27.3608 141.098 27.4702C140.919 27.5762 140.723 27.6293 140.511 27.6293Z" fill="#323338"/>
</g>
<defs>
<linearGradient id="paint0_linear_791_390" x1="77" y1="0.5" x2="77" y2="44.5" gradientUnits="userSpaceOnUse">
<stop stop-color="#471BFF"/>
<stop offset="1" stop-color="#7C5CFF"/>
</linearGradient>
<clipPath id="clip0_791_390">
<rect width="132" height="20" fill="white" transform="translate(11 12.5)"/>
</clipPath>
</defs>
</svg>
