<svg width="54" height="54" viewBox="0 0 54 54" fill="none" xmlns="http://www.w3.org/2000/svg">
<circle cx="27" cy="27" r="27" fill="url(#paint0_linear_455_75)"/>
<path d="M31.7455 41H27.6143C26.3302 41 25.043 40.4434 23.8931 39.3913C23.8891 39.3872 23.885 39.3841 23.882 39.3801L21.8845 37.6055C21.1132 36.9115 20.5108 36.0385 20.1404 35.0779L18.0901 29.4204C17.8265 28.6908 18.1583 27.894 18.8624 27.5654C19.9614 27.0617 21.2984 27.5298 21.8499 28.5972L23.4312 32.2054C23.6408 31.8869 23.7578 31.5094 23.7578 31.1197V17.5965C23.7578 17.3156 23.9857 17.0877 24.2666 17.0877C24.5474 17.0877 24.7754 17.3156 24.7754 17.5965V31.1197C24.7754 32.0599 24.3256 32.9543 23.5726 33.5129C23.4485 33.6055 23.2897 33.635 23.1391 33.5964C22.9896 33.5567 22.8654 33.4498 22.8034 33.3084L20.9311 29.0347C20.6421 28.4801 19.8962 28.2095 19.2888 28.4893C19.072 28.5911 18.9642 28.8495 19.0466 29.0754L21.0918 34.7228C21.4063 35.5358 21.9018 36.2542 22.5612 36.8474L24.5627 38.6261C24.5688 38.6322 24.5749 38.6373 24.581 38.6434C25.5548 39.5317 26.5754 39.9825 27.6143 39.9825H31.7455C33.7481 39.9825 35.4463 38.5518 35.7821 36.5798C35.9053 35.8492 35.9683 35.3129 35.9683 34.9863V28.2807C35.9683 27.719 35.5115 27.2632 34.9508 27.2632C34.3901 27.2632 33.9332 27.719 33.9332 28.2807C33.9332 28.5615 33.7053 28.7895 33.4245 28.7895C33.1436 28.7895 32.9157 28.5615 32.9157 28.2807V27.2632C32.9157 26.7015 32.4588 26.2456 31.8982 26.2456C31.3375 26.2456 30.8806 26.7015 30.8806 27.2632C30.8806 27.544 30.6527 27.7719 30.3718 27.7719C30.091 27.7719 29.8631 27.544 29.8631 27.2632V26.7544C29.8631 26.1927 29.4062 25.7368 28.8455 25.7368C28.2849 25.7368 27.828 26.1927 27.828 26.7544C27.828 27.0352 27.6001 27.2632 27.3192 27.2632C27.0384 27.2632 26.8104 27.0352 26.8104 26.7544V17.5965C26.8104 17.0348 26.3536 16.5789 25.7929 16.5789C25.5121 16.5789 25.2841 16.351 25.2841 16.0702C25.2841 15.7893 25.5121 15.5614 25.7929 15.5614C26.9152 15.5614 27.828 16.4741 27.828 17.5965V24.993C28.1271 24.819 28.4751 24.7193 28.8455 24.7193C29.5843 24.7193 30.2324 25.1151 30.5896 25.7063C30.9437 25.4082 31.4006 25.2281 31.8982 25.2281C32.7844 25.2281 33.5405 25.7979 33.8193 26.5906C34.1429 26.3728 34.5326 26.2456 34.9508 26.2456C36.0731 26.2456 36.9859 27.1584 36.9859 28.2807V34.9863C36.9859 35.375 36.9208 35.952 36.7854 36.7497C36.3652 39.2132 34.2456 41 31.7455 41ZM22.9143 15.2276C22.784 15.2276 22.6538 15.1778 22.5541 15.0791L21.8347 14.3597C21.6362 14.1613 21.6362 13.8387 21.8347 13.6403C22.0331 13.4419 22.3556 13.4419 22.5541 13.6403L23.2735 14.3597C23.4719 14.5581 23.4719 14.8807 23.2735 15.0791C23.1748 15.1778 23.0445 15.2276 22.9143 15.2276ZM25.7929 14.0351C25.5121 14.0351 25.2841 13.8072 25.2841 13.5263V12.5088C25.2841 12.2279 25.5121 12 25.7929 12C26.0737 12 26.3017 12.2279 26.3017 12.5088V13.5263C26.3017 13.8072 26.0737 14.0351 25.7929 14.0351ZM28.6715 15.2276C28.5413 15.2276 28.411 15.1778 28.3113 15.0791C28.1129 14.8807 28.1129 14.5581 28.3113 14.3597L29.0307 13.6403C29.2291 13.4419 29.5517 13.4419 29.7501 13.6403C29.9485 13.8387 29.9485 14.1613 29.7501 14.3597L29.0307 15.0791C28.931 15.1778 28.8018 15.2276 28.6715 15.2276ZM30.8806 18.1053H29.8631C29.5822 18.1053 29.3543 17.8773 29.3543 17.5965C29.3543 17.3156 29.5822 17.0877 29.8631 17.0877H30.8806C31.1615 17.0877 31.3894 17.3156 31.3894 17.5965C31.3894 17.8773 31.1615 18.1053 30.8806 18.1053ZM21.7227 18.1053H20.7052C20.4243 18.1053 20.1964 17.8773 20.1964 17.5965C20.1964 17.3156 20.4243 17.0877 20.7052 17.0877H21.7227C22.0036 17.0877 22.2315 17.3156 22.2315 17.5965C22.2315 17.8773 22.0036 18.1053 21.7227 18.1053Z" fill="white"/>
<defs>
<linearGradient id="paint0_linear_455_75" x1="27" y1="0" x2="27" y2="54" gradientUnits="userSpaceOnUse">
<stop stop-color="#471BFF"/>
<stop offset="1" stop-color="#7C5CFF"/>
</linearGradient>
</defs>
</svg>
